<svg xmlns="http://www.w3.org/2000/svg" viewBox="0 0 500 500"><g id="freepik--background-complete--inject-387"><path d="M451.62,340.74c.2,0,.57-.08,1-.16s.77-.18,1.14-.3a4.88,4.88,0,0,0,.51-.22,1.5,1.5,0,0,0,.54-.41c.63-.84,11.76-27.86,12.58-30.47a9.51,9.51,0,0,0,.3-1.23l-.06.11a3.59,3.59,0,0,0-1-3.2l-18.15,36.39h-3.75l-10.2.55a.78.78,0,0,0-.72.79v4.24c-7.68,4.24-20.55,11.57-22.1,12.64a8.73,8.73,0,0,0-1,.77l.11-.05a3.65,3.65,0,0,0-1.07,3.19l29.57-13.81-.48,31.71-.06,3.56h0l0,2.06v.66h0l-.54,35.95h9.73l-2-36h0v-.25l-.14-2.43h0l-.24-4.34h0l-1.8-32.34h1l3.33-.05c.05.54.12,1.17.2,1.88-.43.4-2,1.92-2,2.84-.05,1.07,5.63,29.91,6.38,32.55a11.16,11.16,0,0,0,.43,1.17v-.12a3.35,3.35,0,0,0,2.6,2l-5-40.6a1.23,1.23,0,0,0,.35-.91l-.1-2.2a2.4,2.4,0,0,0,.07-.76,2.21,2.21,0,0,0-.13-.62l0-.83C451,342,451.29,341.39,451.62,340.74Z" style="fill:#ebebeb"></path><path d="M10.88,441.08S68,378.92,200.68,366.14s286.16,74.94,286.16,74.94Z" style="fill:#f5f5f5"></path><path d="M102.57,133.73h12a2.45,2.45,0,0,1,2.26,2.5l.47,10.9a2.5,2.5,0,0,1-2.24,2.76l-12.44.18Z" style="fill:#e0e0e0"></path><path d="M117.62,159.8c1.19,2.08,48.36,48.46,53.16,52.37,5.4,4.41,10,1.58,10,1.58L116,139.21l-5.18,3.23,7.61,8.9S116.42,157.72,117.62,159.8Z" style="fill:#f5f5f5"></path><path d="M170.78,212.17a20.37,20.37,0,0,0,2.34,1.63l-2.72-3.2-51.95-59.26s-2,6.38-.83,8.46S166,208.26,170.78,212.17Z" style="fill:#ebebeb"></path><path d="M112.88,144.83c.13-.11,6.14,6.58,13.43,14.94s13.1,15.23,13,15.33-6.14-6.58-13.43-14.94S112.76,144.93,112.88,144.83Z" style="fill:#e0e0e0"></path><polygon points="89.91 150.07 85.59 336.19 110.41 331.6 100.29 150.07 89.91 150.07" style="fill:#f5f5f5"></polygon><polygon points="89.91 150.07 89.58 171.73 100.9 161.06 100.29 150.07 89.91 150.07" style="fill:#e0e0e0"></polygon><path d="M76.75,136.9v11.29a1.83,1.83,0,0,0,1.78,1.88h24V133.73L78.44,135A1.84,1.84,0,0,0,76.75,136.9Z" style="fill:#f5f5f5"></path><path d="M119.41,123.21c.28-2.43-9.65-68.45-11.13-74.49-1.67-6.78-7-7-7-7l7.27,99.83,6,.21-.76-11.85S119.13,125.65,119.41,123.21Z" style="fill:#f5f5f5"></path><path d="M108.28,48.72a22.5,22.5,0,0,0-.89-2.7l.26,4.25,6.14,79.63s5.34-4.25,5.62-6.69S109.76,54.76,108.28,48.72Z" style="fill:#ebebeb"></path><path d="M111.51,100.31a7.91,7.91,0,0,1,.19,1.57c.09,1.13.21,2.57.34,4.3.32,3.73.73,8.69,1.19,14.16s.84,10.56,1,14.2c.09,1.82.14,3.3.15,4.32a6.81,6.81,0,0,1,0,1.59,8.6,8.6,0,0,1-.19-1.57c-.09-1.12-.2-2.56-.34-4.29-.31-3.74-.73-8.69-1.19-14.17s-.84-10.55-1-14.2c-.09-1.82-.15-3.29-.16-4.31A8.76,8.76,0,0,1,111.51,100.31Z" style="fill:#e0e0e0"></path><polygon points="88.75 226.54 104.55 226.54 105.13 236.82 88.59 236.82 88.75 226.54" style="fill:#ebebeb"></polygon><polygon points="88.54 240.5 105.33 240.5 105.48 243.16 88.5 243.23 88.54 240.5" style="fill:#ebebeb"></polygon><path d="M92.54,152.1c-1.75,1.81-36,61.71-38.7,67.53-3,6.55.81,10,.81,10l57.63-85.83L107.91,140,101,150.08S94.29,150.28,92.54,152.1Z" style="fill:#f5f5f5"></path><path d="M53.84,219.63a21.66,21.66,0,0,0-1,2.75l2.48-3.63L101,150.08s-6.71.2-8.46,2S56.54,213.81,53.84,219.63Z" style="fill:#ebebeb"></path><path d="M108.22,139.49a7.22,7.22,0,0,1-.76,1.37l-2.3,3.68c-2,3.1-4.73,7.35-7.84,12s-6,8.84-8.12,11.83c-1.07,1.5-2,2.69-2.58,3.51a8.34,8.34,0,0,1-1,1.23,8.14,8.14,0,0,1,.84-1.35l2.43-3.61,8-11.92,8-11.91,2.46-3.59A7.27,7.27,0,0,1,108.22,139.49Z" style="fill:#e0e0e0"></path><path d="M114,140.6c0,1.17.91,3.46.26,4.21s-2.88.49-4,.49c-2.08,0-3.76-2.1-3.76-4.7s1.68-4.7,3.76-4.7a11.24,11.24,0,0,1,4.18.35C115.29,136.57,114,139.44,114,140.6Z" style="fill:#f5f5f5"></path><path d="M116.73,140.6c0,2.6-1.69,4.7-3.77,4.7s-3.76-2.1-3.76-4.7,1.69-4.7,3.76-4.7S116.73,138,116.73,140.6Z" style="fill:#e0e0e0"></path><path d="M109.41,135.9a4.9,4.9,0,0,1,1.39-.15l1.58-.06c.3,0,.63-.06,1,0a3.51,3.51,0,0,1,1.11.32h0a5,5,0,0,1,2.5,4.14,5.57,5.57,0,0,1-1.3,4.09,3.36,3.36,0,0,1-3,1.22h0a11.69,11.69,0,0,1-2.5-.16,10.2,10.2,0,0,1,2.47-.24h0a3.1,3.1,0,0,0,2.61-1.19,5.15,5.15,0,0,0,1.11-3.68,4.52,4.52,0,0,0-2.15-3.7h0s0,0,0,0h0a3.33,3.33,0,0,0-1-.32c-.31-.05-.63,0-.94,0l-1.59-.07A4.64,4.64,0,0,1,109.41,135.9Z" style="fill:#e0e0e0"></path><path d="M112.64,145.23c0,.06-.67,0-1.53-.61a5.19,5.19,0,0,1-2.09-3.54,5.37,5.37,0,0,1,1.16-4c.69-.83,1.31-1.06,1.34-1s-.47.44-1,1.26a5.5,5.5,0,0,0-.91,3.65,5.37,5.37,0,0,0,1.76,3.28C112.08,144.93,112.67,145.13,112.64,145.23Z" style="fill:#e0e0e0"></path><path d="M111,145.32a2.43,2.43,0,0,1-1.77-.22,5,5,0,0,1-2.92-3.32,5.42,5.42,0,0,1,.83-4.45c.69-1,1.38-1.22,1.4-1.16s-.52.48-1.07,1.41a5.42,5.42,0,0,0-.61,4,5.09,5.09,0,0,0,2.53,3.1C110.32,145.2,111,145.22,111,145.32Z" style="fill:#e0e0e0"></path><path d="M379,263.78h8.3a1.72,1.72,0,0,1,1.58,1.74l.32,7.57a1.73,1.73,0,0,1-1.55,1.92l-8.65.13Z" style="fill:#e0e0e0"></path><path d="M381.47,282.82c-.09,1.76,9.25,49.16,10.49,53.49,1.39,4.88,5,5,5,5L388,269.57l-4-.11,1,8.52S381.56,281.07,381.47,282.82Z" style="fill:#f5f5f5"></path><path d="M392,336.31a16.64,16.64,0,0,0,.7,1.94l-.34-3.05L385,278s-3.41,3.09-3.5,4.84S390.72,332,392,336.31Z" style="fill:#ebebeb"></path><path d="M384.24,271.75c.18,0,1.14,6.48,2.16,14.54s1.69,14.61,1.52,14.63-1.14-6.48-2.16-14.54S384.07,271.77,384.24,271.75Z" style="fill:#e0e0e0"></path><polygon points="370.19 275.14 368.31 398.99 384.31 398.99 377.4 275.14 370.19 275.14" style="fill:#f5f5f5"></polygon><polygon points="370.19 275.14 369.96 290.19 377.83 282.78 377.4 275.14 370.19 275.14" style="fill:#e0e0e0"></polygon><path d="M361,266v7.85a1.27,1.27,0,0,0,1.24,1.3H379V263.78l-16.77.91A1.27,1.27,0,0,0,361,266Z" style="fill:#f5f5f5"></path><path d="M395.63,261.15c1-1.38,19.32-45.79,20.68-50.09,1.52-4.82-1.33-7.1-1.33-7.1l-31.93,64,3.22,2.54,3.85-7.57S394.6,262.53,395.63,261.15Z" style="fill:#f5f5f5"></path><path d="M416.31,211.06a18.08,18.08,0,0,0,.48-2l-1.39,2.71L390.12,263s4.48-.44,5.51-1.82S415,215.36,416.31,211.06Z" style="fill:#ebebeb"></path><path d="M399.51,243.94a29.49,29.49,0,0,1-1.74,3.85c-1.21,2.53-2.73,5.68-4.41,9.17s-3.35,6.79-4.58,9.08a25.77,25.77,0,0,1-2.14,3.63,29.49,29.49,0,0,1,1.74-3.85c1.21-2.53,2.73-5.68,4.41-9.17s3.35-6.79,4.58-9.08A26.56,26.56,0,0,1,399.51,243.94Z" style="fill:#e0e0e0"></path><polygon points="369.38 328.3 380.37 328.3 380.76 335.44 369.27 335.44 369.38 328.3" style="fill:#ebebeb"></polygon><polygon points="369.24 338 380.91 338 381.01 339.85 369.21 339.9 369.24 338" style="fill:#ebebeb"></polygon><path d="M370.39,268c-1.62.4-42.1,23.25-45.69,25.73-4,2.79-3.14,6.43-3.14,6.43l62.73-29.3-1-4.1-7.46,3.41S372,267.59,370.39,268Z" style="fill:#f5f5f5"></path><path d="M324.7,293.73a16.4,16.4,0,0,0-1.56,1.26l2.68-1.21,50-23.61s-3.78-2.58-5.4-2.17S328.29,291.25,324.7,293.73Z" style="fill:#ebebeb"></path><path d="M383.59,266.6a22.75,22.75,0,0,1-3.47,1.94c-2.2,1.12-5.25,2.63-8.64,4.23s-6.5,3-8.76,3.93a19.62,19.62,0,0,1-3.74,1.36,28,28,0,0,1,3.56-1.8l8.68-4.11c3.39-1.6,6.47-3,8.71-4A22.77,22.77,0,0,1,383.59,266.6Z" style="fill:#e0e0e0"></path><path d="M386.91,268.56c0,.81.64,2.4.18,2.92s-2,.34-2.8.34c-1.44,0-2.61-1.46-2.61-3.26s1.17-3.27,2.61-3.27a7.82,7.82,0,0,1,2.91.24C387.83,265.76,386.91,267.75,386.91,268.56Z" style="fill:#f5f5f5"></path><path d="M388.83,268.56c0,1.8-1.17,3.26-2.62,3.26s-2.61-1.46-2.61-3.26,1.17-3.27,2.61-3.27S388.83,266.75,388.83,268.56Z" style="fill:#e0e0e0"></path><path d="M383.74,265.29c0-.06.36-.12,1-.17l1.1-.07c.2,0,.43-.05.71,0a2.4,2.4,0,0,1,.8.22h0a3.57,3.57,0,0,1,1.82,3,4,4,0,0,1-1,2.93A2.43,2.43,0,0,1,386,272h0a4.81,4.81,0,0,1-1.75-.21,5.19,5.19,0,0,1,1.71-.25h0a2.08,2.08,0,0,0,1.72-.83,3.45,3.45,0,0,0,.73-2.46,3,3,0,0,0-1.42-2.48h0s0,0,0,0h0a2.38,2.38,0,0,0-1.27-.25l-1.1-.07C384.1,265.42,383.74,265.36,383.74,265.29Z" style="fill:#e0e0e0"></path><path d="M386,271.77c0,.08-.49.07-1.12-.34a3.62,3.62,0,0,1-1.52-2.52,3.7,3.7,0,0,1,.86-2.85c.51-.57,1-.71,1-.64s-.29.36-.64.94a3.63,3.63,0,0,0,.57,4.69C385.62,271.5,386,271.67,386,271.77Z" style="fill:#e0e0e0"></path><path d="M384.85,271.84c0,.07-.5.21-1.27-.07a3.56,3.56,0,0,1-2.11-2.36,3.77,3.77,0,0,1,.62-3.17c.52-.67,1-.83,1.05-.76s-.32.38-.67,1a3.72,3.72,0,0,0-.38,2.72,3.56,3.56,0,0,0,1.67,2.1C384.39,271.68,384.85,271.73,384.85,271.84Z" style="fill:#e0e0e0"></path><path d="M191.44,370.69c-14.4-12.85-29.6-25.21-47.23-33s-38.13-10.76-56.33-4.35C71.73,339,56,349.4,47.76,364.39,33,391.12,28.92,413.54,18,440.12l38.07,1.53,179.64-33.78C219.73,397.07,205.83,383.53,191.44,370.69Z" style="fill:#f5f5f5"></path><path d="M235.68,102.65c.8-6.08-7.33-11.07-13.44-11.59-2.91-.25-5.93.22-8.69-.79-6-2.2-8.36-10.34-14.2-12.93-4.36-1.94-9.37-.22-13.6,2s-8.4,5.06-13.13,5.38c-4.1.28-8.56-1.33-12.16.79-2.68,1.58-4.08,4.83-6.55,6.75s-5.56,2.27-8.56,2.45-6.1.2-8.82,1.52-5,4.36-4.42,7.46Z" style="fill:#ebebeb"></path><path d="M422.69,88c.45-3.47-4.19-6.32-7.68-6.62-1.67-.14-3.4.13-5-.45-3.42-1.26-4.78-5.91-8.12-7.39-2.49-1.11-5.36-.13-7.78,1.16s-4.8,2.89-7.5,3.07c-2.35.16-4.9-.76-6.95.45-1.53.91-2.33,2.77-3.75,3.86a8.54,8.54,0,0,1-4.89,1.4,13.22,13.22,0,0,0-5,.87,4.24,4.24,0,0,0-2.53,4.27Z" style="fill:#ebebeb"></path><path d="M460.83,168.34c.38-4.44-5.69-7.81-10.15-8-2.12-.09-4.31.35-6.35-.3-4.42-1.4-6.42-7.25-10.74-9-3.24-1.26-6.83.15-9.83,1.92s-5.95,4-9.38,4.34c-3,.34-6.27-.69-8.82,1-1.89,1.23-2.81,3.65-4.54,5.12s-4,1.84-6.15,2.06-4.43.35-6.37,1.39-3.49,3.33-3,5.58Z" style="fill:#f5f5f5"></path><path d="M349.6,44.53c.58-4.42-5.34-8.06-9.78-8.43-2.12-.18-4.32.16-6.33-.58-4.35-1.6-6.09-7.53-10.34-9.42-3.17-1.41-6.83-.15-9.91,1.48s-6.11,3.69-9.55,3.92c-3,.2-6.24-1-8.86.58-1.95,1.14-3,3.51-4.77,4.91s-4.05,1.66-6.23,1.78-4.44.15-6.43,1.11-3.63,3.17-3.21,5.44Z" style="fill:#f5f5f5"></path></g><g id="freepik--Plant--inject-387"><path d="M81.83,381.47A11.12,11.12,0,0,1,87.61,388a19.62,19.62,0,0,1,.77,8.88c-.65,5.77-3.92,11.58-7.45,16.19-4.85-4.24-6-11.62-6.3-15.41-.52-6,2.16-17.1,7.2-16.21" style="fill:#344C0E"></path><path d="M86.57,422.6a9.52,9.52,0,0,1,3.08-9.06A12.61,12.61,0,0,1,99,410.63a5.3,5.3,0,0,1,4.1,1.84,4.07,4.07,0,0,1,.06,4.12,8.21,8.21,0,0,1-3.06,3c-4.2,2.63-8.76,4.41-13.51,3" style="fill:#344C0E"></path><path d="M80.35,440.27a7.12,7.12,0,0,1,.17-1.19c.15-.83.35-1.9.59-3.2a33.23,33.23,0,0,1,3.3-10.22,20.49,20.49,0,0,1,7.34-7.8,14.34,14.34,0,0,1,3-1.32c.36-.12.66-.17.86-.22a1,1,0,0,1,.31,0,19,19,0,0,0-11.13,9.58,36,36,0,0,0-3.38,10.08c-.3,1.34-.53,2.43-.72,3.18A6.21,6.21,0,0,1,80.35,440.27Z" style="fill:#263238"></path><path d="M80.53,390.12a2.41,2.41,0,0,1,.06.52c0,.38,0,.87.09,1.48.07,1.29.14,3.16.22,5.47.15,4.62.26,11,.23,18.05s-.2,13.43-.39,18.05c-.09,2.3-.19,4.17-.27,5.46,0,.61-.07,1.1-.1,1.48a2.41,2.41,0,0,1-.06.52,2.09,2.09,0,0,1,0-.52c0-.38,0-.88,0-1.49,0-1.34.08-3.19.13-5.46.12-4.62.24-11,.27-18s0-13.43-.11-18c0-2.27-.06-4.13-.09-5.47v-1.49A3,3,0,0,1,80.53,390.12Z" style="fill:#263238"></path><path d="M78.18,426.11A22.31,22.31,0,0,0,66,409.78c-1.62-.78-3.74-1.28-5.08-.08s-1,3.38-.38,5.06a19,19,0,0,0,17.51,11.82" style="fill:#344C0E"></path><path d="M66.79,415.25a4.76,4.76,0,0,1,1,.45,9.16,9.16,0,0,1,1.17.62c.43.27,1,.53,1.48.92a20.94,20.94,0,0,1,1.69,1.28,22.12,22.12,0,0,1,1.8,1.64,24.57,24.57,0,0,1,3.43,4.4,24.31,24.31,0,0,1,2.26,5.11,21.32,21.32,0,0,1,.57,2.37,19.48,19.48,0,0,1,.29,2.1,15.77,15.77,0,0,1,.08,1.74,10.53,10.53,0,0,1,0,1.32,5.61,5.61,0,0,1-.12,1.12c-.1,0,.07-1.6-.22-4.15a20,20,0,0,0-.33-2.07,21.51,21.51,0,0,0-.6-2.32,24.55,24.55,0,0,0-2.25-5,26,26,0,0,0-3.34-4.35,23.61,23.61,0,0,0-1.75-1.64,20.59,20.59,0,0,0-1.64-1.3C68.21,416,66.75,415.33,66.79,415.25Z" style="fill:#263238"></path></g><g id="freepik--Floor--inject-387"><path d="M461.09,441.13c0,.14-94.51.26-211.08.26s-211.1-.12-211.1-.26,94.49-.26,211.1-.26S461.09,441,461.09,441.13Z" style="fill:#263238"></path></g><g id="freepik--Character--inject-387"><path d="M284.31,430.87s59.17,9,61.57,9.53c3.59.8,4.53,13.51-.87,14-2.55.21-43.81,6.81-49.08,7.11s-21.83-4-21.83-4Z" style="fill:#455a64"></path><path d="M310.78,449.87c.3,0,.32-3.07,1.79-6.45s3.63-5.55,3.42-5.76-2.78,1.75-4.31,5.38S310.54,449.93,310.78,449.87Z" style="fill:#263238"></path><path d="M304.49,447.88c.28,0,.54-2.76,1.71-5.94s2.71-5.48,2.48-5.65-2.19,2-3.39,5.32S304.24,447.89,304.49,447.88Z" style="fill:#263238"></path><path d="M298.71,447.05c.28-.05-.28-2.89.61-6.21s2.7-5.55,2.48-5.73-2.5,1.87-3.41,5.49S298.48,447.16,298.71,447.05Z" style="fill:#263238"></path><path d="M298.84,439.53c.1,0,.42-1.65.1-4.34a20.09,20.09,0,0,0-1.14-4.6,18.59,18.59,0,0,0-1.17-2.55,3.18,3.18,0,0,0-1.09-1.3,1.53,1.53,0,0,0-2,.34,2.54,2.54,0,0,0-.57,1.71,10.77,10.77,0,0,0,.11,1.52,12.53,12.53,0,0,0,.69,2.76,17.38,17.38,0,0,0,2.28,4.17,12,12,0,0,0,3,3.14c.12-.11-1-1.33-2.42-3.53a18.46,18.46,0,0,1-2-4.08,13,13,0,0,1-.58-2.58c-.08-.88-.23-2,.24-2.47a.56.56,0,0,1,.75-.15,2.45,2.45,0,0,1,.74.92,20.65,20.65,0,0,1,1.17,2.43,23.51,23.51,0,0,1,1.3,4.38C298.74,437.87,298.68,439.53,298.84,439.53Z" style="fill:#263238"></path><path d="M298.69,439c0-.11-1.42-.42-3.76-.16a16.73,16.73,0,0,0-4,1,8.79,8.79,0,0,0-2.24,1.14,2.42,2.42,0,0,0-1,2.77,2.87,2.87,0,0,0,2.31,1.8,5.23,5.23,0,0,0,2.56-.32,12.29,12.29,0,0,0,5.85-5.21c-.11-.11-1.08,1-2.8,2.43a10.27,10.27,0,0,1-3.33,1.94,4.56,4.56,0,0,1-2.13.23,2,2,0,0,1-1.56-1.2,1.49,1.49,0,0,1,.66-1.7,9.4,9.4,0,0,1,2-1.06,19.35,19.35,0,0,1,3.78-1.13C297.26,439.05,298.69,439.11,298.69,439Z" style="fill:#263238"></path><path d="M319.66,449.43c.28-.06-.3-2.48.51-5.3s2.47-4.62,2.27-4.82-2.36,1.42-3.2,4.56S319.44,449.56,319.66,449.43Z" style="fill:#263238"></path><path d="M280,456.86a11.22,11.22,0,0,0,2.34.78,49.06,49.06,0,0,0,6.61,1.21,91.69,91.69,0,0,0,22.11-.55c8.58-1.12,16.26-2.43,21.85-3.33l6.59-1.15a11.44,11.44,0,0,0,2.4-.55,12.41,12.41,0,0,0-2.45.18l-6.64.84L311,457.35a103.4,103.4,0,0,1-21.92.82C283.42,457.7,280.05,456.68,280,456.86Z" style="fill:#263238"></path><path d="M278.47,458.37c.09.12,1.55-1,4.06-2.46a20.13,20.13,0,0,1,10.62-3.1c4.4.15,7.8,2.68,10,4.45s3.6,3.09,3.7,3a17.81,17.81,0,0,0-3.26-3.5,23.08,23.08,0,0,0-4.22-3.09,13.6,13.6,0,0,0-6.22-1.8,19,19,0,0,0-11,3.48C279.7,457,278.4,458.28,278.47,458.37Z" style="fill:#263238"></path><path d="M225.5,429.16s-57.68,16-60,16.78c-3.47,1.23-2.89,14,2.52,13.76,2.56-.09,44.31,1.56,49.58,1.23S237.07,455,237.07,455Z" style="fill:#455a64"></path><path d="M201.47,451.18c-.29,0-.68-3-2.54-6.2s-4.26-5.08-4.08-5.31,3,1.41,4.92,4.83S201.71,451.2,201.47,451.18Z" style="fill:#263238"></path><path d="M207.49,448.45c-.29.05-.87-2.68-2.41-5.69s-3.35-5.13-3.14-5.32,2.41,1.69,4,4.88S207.73,448.43,207.49,448.45Z" style="fill:#263238"></path><path d="M213.13,446.94c-.29,0-.07-2.9-1.35-6.1s-3.35-5.18-3.14-5.39,2.7,1.56,4,5S213.36,447,213.13,446.94Z" style="fill:#263238"></path><path d="M212.1,439.49c-.1,0-.61-1.59-.62-4.3a20.37,20.37,0,0,1,1.45-7.38,3.18,3.18,0,0,1,.92-1.41,1.54,1.54,0,0,1,2,.1,2.53,2.53,0,0,1,.77,1.63,11.31,11.31,0,0,1,.08,1.52,13.44,13.44,0,0,1-.36,2.83,17.15,17.15,0,0,1-1.78,4.41c-1.34,2.34-2.5,3.53-2.59,3.47s.84-1.44,2-3.79a18.62,18.62,0,0,0,1.51-4.29,12.47,12.47,0,0,0,.28-2.63c0-.89,0-2-.53-2.42a.55.55,0,0,0-.76-.07,2.48,2.48,0,0,0-.64,1,23.9,23.9,0,0,0-.87,2.54,23.57,23.57,0,0,0-.76,4.51C212,437.83,212.26,439.46,212.1,439.49Z" style="fill:#263238"></path><path d="M212.18,438.9c0-.11,1.36-.58,3.72-.6a16.88,16.88,0,0,1,4.09.5,9.09,9.09,0,0,1,2.36.87,2.44,2.44,0,0,1,1.3,2.64,2.87,2.87,0,0,1-2.08,2.05,5.27,5.27,0,0,1-2.59,0,10,10,0,0,1-3.74-1.85,10.23,10.23,0,0,1-2.69-2.64c.11-.12,1.2.83,3.08,2.08a10.19,10.19,0,0,0,3.54,1.54,4.64,4.64,0,0,0,2.13,0,2,2,0,0,0,1.41-1.37,1.48,1.48,0,0,0-.86-1.61,8.42,8.42,0,0,0-2.09-.82,19,19,0,0,0-3.89-.68C213.61,438.82,212.2,439.05,212.18,438.9Z" style="fill:#263238"></path><path d="M192.61,451.79c-.29,0,0-2.5-1.14-5.2s-3-4.29-2.82-4.52,2.5,1.14,3.71,4.16S192.84,451.89,192.61,451.79Z" style="fill:#263238"></path><path d="M232.86,454.46a12.62,12.62,0,0,1-2.23,1.05,49.93,49.93,0,0,1-6.42,2c-5.52,1.39-13.38,2.17-22,2.08s-16.43-.49-22.08-.71l-6.68-.36a11.43,11.43,0,0,1-2.45-.26,12.94,12.94,0,0,1,2.46-.11l6.69.05,22.07.43a103.53,103.53,0,0,0,21.87-1.79C229.57,455.7,232.79,454.28,232.86,454.46Z" style="fill:#263238"></path><path d="M234.56,455.77c-.07.13-1.65-.79-4.32-2A20.07,20.07,0,0,0,219.33,452c-4.35.66-7.43,3.58-9.44,5.61a36.44,36.44,0,0,1-3.32,3.4c-.09-.08.89-1.61,2.82-3.86a22.45,22.45,0,0,1,3.83-3.58,13.66,13.66,0,0,1,5.95-2.52,19.09,19.09,0,0,1,11.36,2.14A15.39,15.39,0,0,1,234.56,455.77Z" style="fill:#263238"></path><path d="M176.7,458.27a19.38,19.38,0,0,1,.84-2.18,10.58,10.58,0,0,0-1.91-10.34c-.91-1.1-1.64-1.63-1.57-1.73s.91.3,2,1.36a9.83,9.83,0,0,1,2,10.91A4.45,4.45,0,0,1,176.7,458.27Z" style="fill:#263238"></path><path d="M218.38,347,207,366.72s-56.38-20.63-89.38-14.62c-12.55,2.29-26,30.76-7.7,49,17.84,17.84,49.74,43.06,109.59,51.22,1.5.2,26,5.47,24.5,5.29s35.88,6,35.88,6l6.91-32.36,66.85,10.49c39.39-2.69,58.67-44.82,34.95-58.38-22.13-12.65-63.75-13.66-63.75-13.66L309.8,346.09Z" style="fill:#263238"></path><path d="M279.74,464.3c.17-1.08.65-4,1.62-9.93.54-3.17,1.19-7.05,2-11.5.43-2.23.9-4.6,1.47-7.1.28-1.25.59-2.53,1-3.83.18-.65.38-1.31.61-2a6,6,0,0,1,1-2l.1.48c-14.23-5.05-32-11.72-51-19.72-11.65-5-22.65-10-32.33-15.18A104.92,104.92,0,0,1,191,385.37c-3.93-2.91-7.43-5.81-10.72-8.33-6.5-5.14-12.4-8.45-16.81-9.86a26.19,26.19,0,0,0-2.95-.87,17.6,17.6,0,0,0-2.2-.48l-1.36-.25-.47-.1a1.93,1.93,0,0,1,.48,0l1.38.18a15.07,15.07,0,0,1,2.22.41,28.06,28.06,0,0,1,3,.81,40.06,40.06,0,0,1,7.73,3.45,80.94,80.94,0,0,1,9.3,6.27c3.31,2.51,6.83,5.39,10.76,8.26A106.58,106.58,0,0,0,204.56,393c9.66,5.16,20.65,10.15,32.29,15.1,18.94,8,36.7,14.71,50.89,19.84l.4.14-.3.34a5.92,5.92,0,0,0-.88,1.74c-.23.63-.43,1.28-.61,1.92-.37,1.29-.69,2.56-1,3.8-.58,2.48-1.08,4.85-1.52,7.07-.88,4.44-1.58,8.3-2.16,11.47l-1.36,7.32c-.17.84-.3,1.48-.41,1.91A5.51,5.51,0,0,1,279.74,464.3Z" style="fill:#455a64"></path><path d="M375.66,387.25s-.12,0-.36,0l-1-.16c-.92-.12-2.24-.47-4-.64a77.84,77.84,0,0,0-14.83-.52,110.28,110.28,0,0,0-21.71,3.58c-4,1.07-8.18,2.34-12.45,3.81s-8.62,3.19-13.08,5a121.51,121.51,0,0,1-13.34,4.4c-4.37,1.2-8.64,2.15-12.73,2.94-8.18,1.59-15.62,2.57-21.86,3.34s-11.32,1.27-14.82,1.63l-4,.39-1,.09c-.23,0-.36,0-.36,0l.35-.07,1-.16,4-.53,14.78-1.86c6.23-.82,13.65-1.86,21.8-3.48,4.07-.81,8.33-1.76,12.68-3a124.58,124.58,0,0,0,13.26-4.39c4.45-1.78,8.83-3.48,13.11-5s8.48-2.73,12.51-3.79a107.67,107.67,0,0,1,21.85-3.45,72.57,72.57,0,0,1,14.89.76c1.76.21,3.08.6,4,.76l1,.24Z" style="fill:#455a64"></path><path d="M272.68,375.79c0,.47-3,1.23-8,1.7a100.55,100.55,0,0,1-19.62-.25,101.56,101.56,0,0,1-19.23-3.91c-4.79-1.52-7.6-2.9-7.45-3.36.31-1,12.15,2.15,27.06,3.7S272.58,374.74,272.68,375.79Z" style="fill:#263238"></path><path d="M325.52,370.2a13.34,13.34,0,0,1-2.21.59c-.72.15-1.58.37-2.58.67s-2.14.59-3.38,1a85.08,85.08,0,0,0-8.53,3.39c-3.13,1.48-6.49,3.26-9.92,5.3A159,159,0,0,0,282.16,393c-2.05,1.64-3.69,3-4.81,3.93a15.75,15.75,0,0,1-1.8,1.41,12.91,12.91,0,0,1,1.61-1.62c1.07-1,2.66-2.42,4.68-4.11a133,133,0,0,1,16.69-12,108.12,108.12,0,0,1,10-5.29A74,74,0,0,1,317.2,372c1.25-.42,2.41-.69,3.43-.94s1.89-.45,2.62-.56A14.74,14.74,0,0,1,325.52,370.2Z" style="fill:#455a64"></path><path d="M262.85,398.29a16.36,16.36,0,0,1-4-1.13,84,84,0,0,1-9-4.09l-8.77-4.59a28.43,28.43,0,0,1-3.6-2,19.41,19.41,0,0,1,3.82,1.5c2.32,1.05,5.44,2.65,8.88,4.41s6.58,3.28,8.91,4.25S262.88,398.18,262.85,398.29Z" style="fill:#455a64"></path><path d="M269,349.32c.1,0-.09,2.08-.3,5.41s-.4,7.93-.3,13,.46,9.68.8,13,.62,5.37.51,5.39a5.41,5.41,0,0,1-.36-1.42c-.19-.91-.42-2.25-.65-3.91a111.9,111.9,0,0,1-.51-26.12c.17-1.67.35-3,.5-3.94A5.74,5.74,0,0,1,269,349.32Z" style="fill:#455a64"></path><path d="M275.22,351.38c0,.05-.24.21-.59.62a4,4,0,0,0-.88,2,3.8,3.8,0,0,0,.87,3,3.55,3.55,0,0,0,5.89-2.18A3.82,3.82,0,0,0,279.2,352a4.09,4.09,0,0,0-2-1c-.53-.08-.84,0-.85-.09s.28-.18.87-.19a3.81,3.81,0,0,1,2.3.86,4.24,4.24,0,0,1,1.65,3.27,4.16,4.16,0,0,1-7,2.61,4.24,4.24,0,0,1-.88-3.55,3.87,3.87,0,0,1,1.18-2.15C274.88,351.42,275.21,351.35,275.22,351.38Z" style="fill:#455a64"></path><path d="M289.35,236.37a7.64,7.64,0,0,1-3.32,6.37,22.58,22.58,0,0,0-2.24,1.45c-1.66,1.45-2,3.86-2.19,6a7,7,0,0,1-1.66-5.09,14.38,14.38,0,0,0-1.77,4.33,12.12,12.12,0,0,1,3.06-17.41" style="fill:#263238"></path><path d="M290.38,229.72c1.87,1.59,2.1,5.18.64,6.5a6.5,6.5,0,0,1-5.56,1.28,7,7,0,0,1-5.35-4.06,4.77,4.77,0,0,1,2.16-6,6.35,6.35,0,0,1,4.63.18,8.62,8.62,0,0,1,3.48,2.07,4.63,4.63,0,0,1,1.35,3.72" style="fill:#344C0E"></path><path d="M295.8,108.44c3.1,1.52,4.53,5.21,4.79,8.65s-.36,6.91,0,10.34c.42,4.49,2.28,9.56-.52,13.09A21.42,21.42,0,0,1,299,162.13a14.55,14.55,0,0,1-.91,19.28c2.25,2.86,2.74,6.74,2.52,10.38s-1.06,7.22-1.13,10.87c-.07,3.37.52,6.79-.23,10.08s-3.41,6.52-6.77,6.38c.8,3.56,1.58,7.39.21,10.77s-5.83,5.74-8.79,3.6c-2.48-1.78-2.53-5.37-2.35-8.41s4.31-7.68,2.87-10.5c-2.93-5.71-1.07-13.65,4.17-18.24a15.51,15.51,0,0,1,.57-11.74,8.59,8.59,0,0,0,1.21-3.54c0-1.75-1.39-3.15-2.46-4.55a16.44,16.44,0,0,1-2.24-15.63c.81-2.09,2.09-4.12,2-6.37-.08-1.86-1.08-3.53-1.67-5.29a12.48,12.48,0,0,1,3-12.57,14.46,14.46,0,0,1,.35-18.13c-4.6-3-5.56-10.34-1.88-14.44" style="fill:#263238"></path><path d="M286.42,207.27a22.38,22.38,0,0,1,11.25-10.92,6.92,6.92,0,0,0-2.26.77,17.7,17.7,0,0,0-8.15,7.92A7,7,0,0,0,286.42,207.27Z" style="fill:#455a64"></path><path d="M290.63,195.47c-.1.13.64.84,1.18,1.94s.7,2.11.86,2.1a2.93,2.93,0,0,0-.38-2.34C291.68,196,290.7,195.35,290.63,195.47Z" style="fill:#455a64"></path><path d="M290.89,188.24a23.89,23.89,0,0,1,2.4-5.06,23.46,23.46,0,0,1,3.94-4,11,11,0,0,0-6.34,9Z" style="fill:#455a64"></path><path d="M288.31,166.5a26.17,26.17,0,0,1,3.4-3.58,26.26,26.26,0,0,1,4.3-2.42,10,10,0,0,0-7.7,6Z" style="fill:#455a64"></path><path d="M288.61,156c-.09.14,1.17,1,2.37,2.47s1.87,2.82,2,2.75a8,8,0,0,0-4.39-5.22Z" style="fill:#455a64"></path><path d="M290.06,143.25a15,15,0,0,1,8.58-8.1,4.27,4.27,0,0,0-1.77.42,11.48,11.48,0,0,0-3.72,2.36,11.62,11.62,0,0,0-2.57,3.58A4.24,4.24,0,0,0,290.06,143.25Z" style="fill:#455a64"></path><path d="M291,132.27a5.23,5.23,0,0,0,1.42,2.56,5.15,5.15,0,0,0,2.3,1.81c.1-.12-.87-1-1.89-2.16A18.35,18.35,0,0,0,291,132.27Z" style="fill:#455a64"></path><path d="M290.48,121.65a20.26,20.26,0,0,1,3.36-3.51A20.83,20.83,0,0,1,298.2,116a9.06,9.06,0,0,0-7.72,5.67Z" style="fill:#455a64"></path><path d="M284.4,221.29a4.92,4.92,0,0,0,2.17.12,10.35,10.35,0,0,0,4.94-1.86,10.2,10.2,0,0,0,3.32-4.1,4.75,4.75,0,0,0,.57-2.1c-.09,0-.3.78-.91,1.94a10.88,10.88,0,0,1-8,5.74C285.23,221.25,284.4,221.2,284.4,221.29Z" style="fill:#455a64"></path><path d="M280.49,101.44c4.71-3.32,11.48-1.54,15.89,2.16a12.55,12.55,0,0,1,2.55,4.48,2.55,2.55,0,0,1-1.21,2.87c-1.2.53-2.55-.23-3.66-.93a50.54,50.54,0,0,0-6.34-3.36c-2.76-1.23-6-2.2-8.71-.93" style="fill:#263238"></path><path d="M292.39,100.83a3.72,3.72,0,0,0-1.73-.65,8.24,8.24,0,0,0-8.06,3,3.73,3.73,0,0,0-.88,1.64c.08,0,.42-.57,1.17-1.39a8.87,8.87,0,0,1,7.71-2.9C291.7,100.68,292.36,100.91,292.39,100.83Z" style="fill:#455a64"></path><path d="M232.24,160c-2.74-7.65-5.45-15.36-6.84-23.37s-1.38-16.41,1.23-24.11c.39-1.17,3.82-9,5.05-8.94.88.07-1.16,7.36-.7,8.11,4.45,7.13,5.85,15.83,5.43,24.23A110.13,110.13,0,0,1,232.24,160" style="fill:#263238"></path><path d="M256.16,227.11a23.18,23.18,0,0,1-23.36-22.48l-2.28-75.82c-1.26-20.35,9.53-38,29.9-38.74l1.89,0a36.45,36.45,0,0,1,35.52,34.38c1,17.64,2.56,37.2,1.52,46.59-2.12,19.22-20.63,20.27-20.63,20.27s.31,6.39.42,12.13a23.19,23.19,0,0,1-23,23.63Z" style="fill:#a36957"></path><path d="M278.8,191.32s-12.34.42-25.28-8.14c0,0,5.86,14.37,25.42,13.08Z" style="fill:#7c3b29"></path><path d="M289.84,142.34a2.8,2.8,0,0,1-2.76,2.76,2.68,2.68,0,0,1-2.82-2.59,2.8,2.8,0,0,1,2.76-2.76A2.68,2.68,0,0,1,289.84,142.34Z" style="fill:#263238"></path><path d="M293.48,135.17c-.36.35-2.44-1.27-5.44-1.33s-5.25,1.39-5.56,1c-.16-.17.21-.82,1.19-1.49a7.63,7.63,0,0,1,4.46-1.26,7.32,7.32,0,0,1,4.32,1.51C293.35,134.34,293.65,135,293.48,135.17Z" style="fill:#263238"></path><path d="M261.85,142.34a2.81,2.81,0,0,1-2.77,2.76,2.68,2.68,0,0,1-2.81-2.59,2.8,2.8,0,0,1,2.75-2.76A2.69,2.69,0,0,1,261.85,142.34Z" style="fill:#263238"></path><path d="M274.21,156.6c0-.17,1.87-.45,4.9-.76.77-.06,1.5-.2,1.65-.72a4,4,0,0,0-.46-2.29c-.68-1.87-1.39-3.84-2.13-5.89-2.95-8.4-5.07-15.3-4.73-15.41s3,6.59,6,15c.71,2.07,1.39,4,2,5.93a4.43,4.43,0,0,1,.33,3,1.93,1.93,0,0,1-1.29,1.09,5,5,0,0,1-1.31.15C276.11,156.8,274.22,156.77,274.21,156.6Z" style="fill:#263238"></path><path d="M265.09,124.05c-.32.81-3.55.43-7.35.86s-6.87,1.39-7.37.66c-.23-.35.3-1.12,1.54-1.91a12.87,12.87,0,0,1,5.47-1.79,13.11,13.11,0,0,1,5.75.63C264.52,123,265.22,123.66,265.09,124.05Z" style="fill:#263238"></path><path d="M293.61,125.91c-.6.68-3,0-5.79-.06s-5.24.46-5.79-.26c-.24-.34.14-1,1.18-1.67a8.85,8.85,0,0,1,4.71-1.12,8.67,8.67,0,0,1,4.62,1.37C293.55,124.87,293.87,125.57,293.61,125.91Z" style="fill:#263238"></path><path d="M289.24,103c2.14-1.23-4.9-8.41-10.27-10.74-8.1-3.51-20.42-5.55-27.8-3.33-8.88,2.68-16.23,7.25-20.57,15.45s-5.88,17.7-5.46,27c.12,2.83.47,5.77,2,8.14,1.9,2.89,5.45,4.69,5.45,8.68a6,6,0,0,0,1.26,4c2.53,2.9,5.6.33,7-2.21,2.85-5.27,3.08-11.51,3.24-17.51.11-4.09.19-10.31-.89-14.26a15.31,15.31,0,0,1-.55-4.52,13.12,13.12,0,0,1,2.11-7,10.13,10.13,0,0,1,1.2-1.23,12,12,0,0,1,11.75-2.21c7.63,2.53,13.79,6.7,22.51,3,1.93-.83,2.86-2.44,3.74-3.38a3.91,3.91,0,0,1,5.29.09Z" style="fill:#263238"></path><path d="M264.55,135c-.36.36-2.44-1.26-5.44-1.32s-5.24,1.38-5.56,1c-.16-.17.21-.82,1.19-1.49a7.56,7.56,0,0,1,4.46-1.26,7.32,7.32,0,0,1,4.32,1.51C264.42,134.18,264.72,134.84,264.55,135Z" style="fill:#263238"></path><path d="M264.34,105.76c-4.46.13-9.26-2.16-13.18,0-2.15,1.17-3.45,3.41-5,5.33a22.73,22.73,0,0,1-20.2,8.26c-3.06-.38-6.62-2.13-6.64-5.22,0-2.45,2.25-4.24,4.35-5.51a148.14,148.14,0,0,1,15.5-7.85,25.4,25.4,0,0,1,6.63-2.33,18.1,18.1,0,0,1,7.69.76,31.86,31.86,0,0,1,11.13,5.8" style="fill:#263238"></path><path d="M260.33,88.6c0,.09,1.25.6,3.15,1.74a28.61,28.61,0,0,1,3.17,2.25A29.3,29.3,0,0,1,270,95.92a29,29,0,0,1,2.75,3.88,26.24,26.24,0,0,1,1.71,3.48c.83,2.06,1.13,3.42,1.23,3.39a3.94,3.94,0,0,0-.14-1,17.93,17.93,0,0,0-.73-2.56,23.75,23.75,0,0,0-1.64-3.6,27.37,27.37,0,0,0-2.77-4A26.56,26.56,0,0,0,267,92.21,23.66,23.66,0,0,0,263.67,90a16.79,16.79,0,0,0-2.41-1.13A3.22,3.22,0,0,0,260.33,88.6Z" style="fill:#455a64"></path><path d="M227.62,109.26a8,8,0,0,1,2.61-2.07,6.35,6.35,0,0,1,3.51-.49,5.33,5.33,0,0,1,1.95.7,2.53,2.53,0,0,1,1.21,1.66,1.26,1.26,0,0,1-.06.55l-.5,1.44,1-1.18a9.2,9.2,0,0,1,3.53-2.17,8.76,8.76,0,0,1,3.28-.88,4.2,4.2,0,0,1,2.18.52c.47.27.67.5.71.47s-.14-.3-.6-.64a4.06,4.06,0,0,0-2.28-.72,8.59,8.59,0,0,0-3.47.8,9.15,9.15,0,0,0-3.77,2.28l.46.26a1.74,1.74,0,0,0,.1-.79,3,3,0,0,0-1.47-2,5.67,5.67,0,0,0-2.16-.74,6.57,6.57,0,0,0-3.74.63,5.88,5.88,0,0,0-2,1.61A2.1,2.1,0,0,0,227.62,109.26Z" style="fill:#455a64"></path><path d="M231.51,114a3.73,3.73,0,0,0,1.32,1.42,7.63,7.63,0,0,0,8.89.22c1-.68,1.43-1.31,1.38-1.34s-.58.45-1.58,1a8.06,8.06,0,0,1-8.48-.21C232.07,114.5,231.58,114,231.51,114Z" style="fill:#455a64"></path><path d="M219.35,114.41s.05.25.25.65a6.17,6.17,0,0,0,1.15,1.5,10.17,10.17,0,0,0,5.71,2.33,11.49,11.49,0,0,0,6.1-1,7.3,7.3,0,0,0,2.2-1.3c0-.08-.89.4-2.35,1a12.22,12.22,0,0,1-5.87.83,10.49,10.49,0,0,1-5.53-2.08A15.49,15.49,0,0,1,219.35,114.41Z" style="fill:#455a64"></path><path d="M224.13,108.61a3.23,3.23,0,0,0-.06,1.87,6.47,6.47,0,0,0,6.52,5.4,3.29,3.29,0,0,0,1.83-.4c0-.09-.72.09-1.82,0a6.63,6.63,0,0,1-6.16-5.1C224.17,109.32,224.22,108.61,224.13,108.61Z" style="fill:#455a64"></path><path d="M225.1,108.27c.07.13.68-.08,1.31.18s.94.83,1.08.78.09-.21,0-.49a1.59,1.59,0,0,0-2-.8C225.19,108.05,225.07,108.21,225.1,108.27Z" style="fill:#455a64"></path><path d="M238.36,106.63a13.68,13.68,0,0,1,4.81-2.77,17.63,17.63,0,0,1,6-.77,33.23,33.23,0,0,1,7.32,1.25c2.56.69,5,1.45,7.24,2a29.76,29.76,0,0,0,6.1.87,16.67,16.67,0,0,0,4.14-.37,9.68,9.68,0,0,0,1.08-.3c.25-.09.37-.14.37-.16a23.17,23.17,0,0,1-5.58.45,31.75,31.75,0,0,1-6-1c-2.23-.54-4.65-1.32-7.23-2a32.53,32.53,0,0,0-7.44-1.23,17.38,17.38,0,0,0-6.1.91,11.45,11.45,0,0,0-3.63,2,7.22,7.22,0,0,0-.82.78C238.43,106.51,238.35,106.61,238.36,106.63Z" style="fill:#455a64"></path><path d="M236.22,105.89a23.81,23.81,0,0,1,3.32-4.13A24.08,24.08,0,0,1,250.8,96a52.53,52.53,0,0,1,12.79-.88l3.91.15a7,7,0,0,0,1.44,0,7.91,7.91,0,0,0-1.43-.2c-.92-.1-2.25-.22-3.91-.32a47,47,0,0,0-12.92.74,23.27,23.27,0,0,0-11.4,6,15.6,15.6,0,0,0-2.43,3.1,10.57,10.57,0,0,0-.5,1C236.25,105.76,236.2,105.88,236.22,105.89Z" style="fill:#455a64"></path><path d="M288,99.18A8.16,8.16,0,0,0,285.81,98,24.4,24.4,0,0,0,280,96.33a24.86,24.86,0,0,0-6.09-.19,8.64,8.64,0,0,0-2.48.47,47.35,47.35,0,0,1,8.49.25A46.28,46.28,0,0,1,288,99.18Z" style="fill:#455a64"></path><path d="M282.3,93.73a7.46,7.46,0,0,0-2.1-1,21.91,21.91,0,0,0-11.08-1,7,7,0,0,0-2.24.63,42.29,42.29,0,0,1,7.8-.33A42.63,42.63,0,0,1,282.3,93.73Z" style="fill:#455a64"></path><path d="M244.48,93.7c.05.09,1.17-.56,3.1-1.3a26.5,26.5,0,0,1,15.88-1c2,.5,3.21,1,3.25.91a3.71,3.71,0,0,0-.81-.43,17.35,17.35,0,0,0-2.34-.85,24,24,0,0,0-16.12,1,17.19,17.19,0,0,0-2.21,1.14C244.72,93.48,244.46,93.67,244.48,93.7Z" style="fill:#455a64"></path><path d="M234,134.66c-.11.1.25.7.81,1.35s1.1,1.11,1.21,1-.25-.7-.8-1.36S234.12,134.56,234,134.66Z" style="fill:#455a64"></path><path d="M232.07,134.93c-.12.09.35.86,1,1.7s1.34,1.46,1.45,1.36-.35-.85-1-1.7S232.18,134.84,232.07,134.93Z" style="fill:#455a64"></path><path d="M272.94,164.52a5.45,5.45,0,0,0-4.87-2.06,5,5,0,0,0-3.45,1.81,3.15,3.15,0,0,0-.27,3.61,3.67,3.67,0,0,0,4,1,11.51,11.51,0,0,0,3.88-2.28,3.34,3.34,0,0,0,.87-.89,1,1,0,0,0,0-1.12" style="fill:#7c3b29"></path><path d="M265.35,159.26c.5,0,.48,3.26,3.27,5.61s6.29,2,6.31,2.48c.05.2-.78.63-2.26.66a8.16,8.16,0,0,1-5.27-1.88,7.14,7.14,0,0,1-2.53-4.7C264.76,160.05,265.13,159.24,265.35,159.26Z" style="fill:#263238"></path><path d="M201.36,228.57l3.53,68.58s-1.69,29.43-2.24,33.12,13.82,20,13.82,20l107.68-1-2.45-52.76-.17-81.95-42.59-9.86s1.36,10.66-18.93,9.18-27.21-9.18-27.21-9.18l-32.29,7.89Z" style="fill:#455a64"></path><path d="M165.57,286.85s14.89-49.17,18.45-56.44c5.44-11.13,12.17-17,17-18.08s4.31,84.84,4.31,84.84S171.48,295.7,165.57,286.85Z" style="fill:#455a64"></path><path d="M352.85,283.34c1.51-2.54-21-68.12-32.41-68.85v82.56Z" style="fill:#455a64"></path><path d="M315.45,236a4.93,4.93,0,0,1,.3.83c.18.6.43,1.4.74,2.42.57,2.12,1.39,5.2,2.05,9.08s1.28,8.52,1.69,13.71.64,10.89.82,16.87.3,11.7.58,16.88.59,9.85.82,13.77.37,7.1.43,9.29c0,1.06,0,1.91.06,2.53a5.9,5.9,0,0,1,0,.88,5.07,5.07,0,0,1-.09-.88q-.06-.93-.15-2.52c-.14-2.24-.35-5.4-.6-9.28s-.63-8.58-.93-13.76-.44-10.9-.62-16.89-.39-11.69-.78-16.86-.94-9.81-1.58-13.68-1.37-6.95-1.87-9.09c-.28-1-.49-1.84-.65-2.44A5.07,5.07,0,0,1,315.45,236Z" style="fill:#263238"></path><path d="M200.51,240.91a22.92,22.92,0,0,1-.83-2.91,67.24,67.24,0,0,0-2.27-6.93,71.15,71.15,0,0,0-3-6.62,22.28,22.28,0,0,1-1.38-2.7,15,15,0,0,1,1.7,2.52A47.38,47.38,0,0,1,200,237.91,14.13,14.13,0,0,1,200.51,240.91Z" style="fill:#263238"></path><path d="M321.32,216.61a14.05,14.05,0,0,1-.91,2.23c-.59,1.36-1.38,3.25-2.12,5.38s-1.3,4.11-1.67,5.54a14.71,14.71,0,0,1-.67,2.32,9.07,9.07,0,0,1,.31-2.4,43.43,43.43,0,0,1,1.54-5.63,43.91,43.91,0,0,1,2.28-5.37A8.89,8.89,0,0,1,321.32,216.61Z" style="fill:#263238"></path><path d="M200.68,245.07a2.37,2.37,0,0,1,.07.56q0,.65.12,1.62c.09,1.48.22,3.49.37,5.95.31,5,.77,12,1.41,19.61s1.33,14.57,1.86,19.57c.26,2.45.47,4.46.62,5.93.07.65.12,1.18.16,1.61a2.47,2.47,0,0,1,0,.57,2.92,2.92,0,0,1-.12-.56c-.06-.42-.15-.95-.25-1.6-.21-1.39-.48-3.41-.79-5.91-.62-5-1.37-11.91-2-19.57s-1-14.6-1.26-19.63c-.11-2.52-.17-4.55-.2-6,0-.66,0-1.19,0-1.62A2.12,2.12,0,0,1,200.68,245.07Z" style="fill:#263238"></path><path d="M347.84,285.36s2.68,41.63,2.25,48.17-2.33,15.9-15.1,18.38S292,345.69,292,345.69L290.49,320s20.64,5.84,23.49,5.24a66.46,66.46,0,0,0,8.94-3.32l-1.22-25.46Z" style="fill:#a36957"></path><path d="M322.92,322.29a2.62,2.62,0,0,1,.71-.71,7.79,7.79,0,0,1,2.46-1.27,15.49,15.49,0,0,1,9,0,10.44,10.44,0,0,1,4.29,2.64,11.44,11.44,0,0,1,2.3,3.39,9.7,9.7,0,0,1,.74,2.66,2.9,2.9,0,0,1,0,1,17.71,17.71,0,0,0-1.11-3.51,11.34,11.34,0,0,0-2.3-3.21,10.17,10.17,0,0,0-4.1-2.48,16.12,16.12,0,0,0-8.75-.17A10.8,10.8,0,0,0,322.92,322.29Z" style="fill:#7c3b29"></path><path d="M173.93,291.94s.18,43.48.81,50,2.85,15.81,15.69,17.87,42.72-7.64,42.72-7.64l.73-25.75s-20.44,6.53-23.31,6a78.47,78.47,0,0,1-7.92-2.17l2.24-33.12Z" style="fill:#a36957"></path><path d="M202.65,330.27a11.78,11.78,0,0,0-3.49-1.59,18.66,18.66,0,0,0-9.17-.08,9.76,9.76,0,0,0-4.3,2.52,11.46,11.46,0,0,0-2.37,3.37,16.82,16.82,0,0,0-1.06,3.7,3.05,3.05,0,0,1,0-1.05,9.51,9.51,0,0,1,.71-2.79,11.18,11.18,0,0,1,2.37-3.57,10,10,0,0,1,4.5-2.68,18,18,0,0,1,9.42.22,8.88,8.88,0,0,1,2.6,1.24,3.53,3.53,0,0,1,.6.5Q202.67,330.26,202.65,330.27Z" style="fill:#7c3b29"></path><path d="M318.92,282.51c-.06-.65-.14-1.29-.22-1.93s-.19-1.36-.3-2c.11.67.21,1.35.3,2S318.86,281.86,318.92,282.51Z" style="fill:#263238"></path><path d="M313.82,290.53a29.58,29.58,0,0,1-1-4,2.59,2.59,0,0,0-1.18-1.79,10.72,10.72,0,0,0-1.41-.33c-1.66-.51-2.11-2.87-3.68-3.6a5.37,5.37,0,0,0-1.58-.33,8.22,8.22,0,0,1-5.6-2.68,11.48,11.48,0,0,0-1.3-1.63,1.54,1.54,0,0,0-1.9-.18c.44.91.88,1.81,1.31,2.71a7.15,7.15,0,0,0,1.48,2.25,2.35,2.35,0,0,0,2.47.54,1.68,1.68,0,0,1,.84-.3.92.92,0,0,1,.54.35c1.15,1.3.77,3.44-.35,4.76a10.66,10.66,0,0,1-4.35,2.64,3.24,3.24,0,0,1-1.77.35c-1.1-.2-1.69-1.42-2-2.52-.72-2.42-1.06-5-2.54-7.1a9.08,9.08,0,0,1-1.34-2,11.25,11.25,0,0,0-.71-2.48c-.49-.75-1.55-1.18-1.62-2.09a1.65,1.65,0,0,1,1-1.46c.57-.28,1.21-.36,1.79-.61.23-.1.49-.27.5-.52s-.52-.53-.65-.89.26-.77.43-1.15c.36-.89-.55-1.79-1.42-2.15s-1.93-.62-2.34-1.49a5.6,5.6,0,0,1-.28-1.29,2.83,2.83,0,0,0-2.08-2.34,1.84,1.84,0,0,0-2.12,1.91,8,8,0,0,0,.79,1.64c.25.56.18,1.39-.39,1.57-.93.29-1.83-1.45-2.61-.85.32,1.11.63,2.23.95,3.35-1.23.63-2.69-.52-3.22-1.82s-.54-2.78-1.16-4-2.3-2.19-3.36-1.31c-.06,1.61,2,2.26,2.95,3.57a2.2,2.2,0,0,1-.41,3.06c-1,.6-2.53-.44-2.16-1.54.13-.37.44-.69.48-1.1a1.69,1.69,0,0,0-.76-1.24l-1.79-1.53a3.87,3.87,0,0,0-1.27-.81c-1.22-.36-2.45.65-3.1,1.76a15.85,15.85,0,0,1-1.9,3.37,3.46,3.46,0,0,1-4.94,0c-1.22-1.42-.59-4.08,1.19-4.6.67-.19,1.53-.17,1.88-.78.62-1.07-1.15-2.45-.54-3.53.47-.83,1.71-.45,2.62-.73s1.4-1.21,1.93-2,1.35-1.59,2.28-1.38a2.93,2.93,0,0,1,.09-1.64,1,1,0,0,1,1.36-.51,1.69,1.69,0,0,0,.88,2.2,4.69,4.69,0,0,0,2.58.19c.87-.11,2-.44,2-1.32a3.15,3.15,0,0,1,0-.87c.38-1.06,2.3.4,3-.45.43-.45-.05-1.23-.64-1.38a6.43,6.43,0,0,0-1.8.09c-.61,0-1.34-.3-1.37-.91s.64-1,.71-1.64c.12-1-1.57-1.27-2.16-.45a3.9,3.9,0,0,0-.21,3c.19,1,.28,2.19-.45,2.89-.31.48-1.12.23-1.39-.28a4.16,4.16,0,0,1-.25-1.69c-.05-.58-.3-1.23-.85-1.38a3,3,0,0,0-1.18.13c-1.54.19-2.62-1.84-2.13-3.34a6.34,6.34,0,0,1,3.24-3.25c1-.56,2.23-1.09,3.22-.52.46.27.78.72,1.23,1a5.21,5.21,0,0,0,2.64.32,6.07,6.07,0,0,1,3.87,1.52c.39.38.77,1,.46,1.43s-1.31.57-1.14,1.12a1.93,1.93,0,0,0,2.42-1.58,1.67,1.67,0,0,1,.93,1.34,2.83,2.83,0,0,1,4.21.35,3.67,3.67,0,0,0,.79,1c.35.23,1,.11,1-.31a.92.92,0,0,0-.08-.4c-.21-.62-.43-1.22-.64-1.83.82-.45,1.8.26,2.36,1,2.08,2.83,3.56,1.13,6.49,1.59,2,.3,2.85,1.6,4,3.16,3.43,4.81,8,8.76,11.07,13.78.33.53.63,1.06.92,1.61l-.15-.41a57.13,57.13,0,0,0-4.53-9.38c-.38-.63-.77-1.26-1.17-1.87l-.76-1.14c-.33-.49-.68-1-1-1.43s-.55-.75-.83-1.11l-.6-.76c-.22-.29-.45-.57-.7-.85l-.74-.88a2.91,2.91,0,0,0-.24-.27q-.39-.47-.81-.9a.25.25,0,0,0-.08-.1l-.23-.24c-.22-.25-.46-.5-.69-.74-.38-.4-.77-.8-1.17-1.18s-.67-.65-1-1-.6-.57-.91-.84l-.91-.79c-.38-.33-.76-.64-1.15-1h0c-1.07-.88-2.18-1.71-3.32-2.49l-.84-.58c-.29-.2-.58-.38-.86-.56l-.87-.54-.88-.53c-.24-.15-.47-.28-.71-.41a3.47,3.47,0,0,0-.37-.21c-.5-.29-1-.57-1.53-.83l-.78-.4-1-.49-.15-.07c-.3-.14-.6-.29-.91-.42l-1.31-.56c-.49-.21-1-.42-1.5-.61s-1.11-.43-1.68-.62l-1.72-.57c-.58-.18-1.16-.34-1.74-.5q-1.74-.48-3.51-.84l-.06,0c-.46-.09-.91-.18-1.36-.25l-.09,0-.6-.1c-.85-.15-1.7-.26-2.56-.36l-.31,0c-.25,0-.5,0-.75-.08-.57-.06-1.14-.1-1.72-.14s-1.2-.07-1.8-.09l-1.89,0c-1.67,0-3.32.07-4.95.22l-1.16.11-1.2.15c-.4,0-.79.1-1.19.17s-.79.12-1.19.2-.68.11-1,.19c-.83.16-1.66.34-2.47.54-.38.09-.77.19-1.15.3l-1.13.31-1.86.58h0l-1.49.52,0,0c-.51.18-1,.37-1.5.57l-.08,0-1.35.56-1.65.75q-.69.31-1.35.66c-.48.24-1,.48-1.43.74l-.06,0-1.35.76c-.46.27-.91.54-1.36.83h0c-.43.26-.85.52-1.26.79l-.47.32c-.45.29-.87.59-1.31.89s-1.05.76-1.56,1.15-.9.7-1.33,1.05a57,57,0,0,0-7,6.74c-.75.85-1.46,1.72-2.16,2.6s-1.15,1.53-1.69,2.33-1,1.4-1.41,2.11c.45-.71.92-1.42,1.41-2.11l.42,0a6.28,6.28,0,0,0,2.37-.39,15,15,0,0,0,1.74-1.37c1.54-1.12,4.07-1.33,4.49-3.21a13.72,13.72,0,0,1,.2-1.93c.44-1.13,1.92-1.29,3.11-1.27.5,0,1.1.07,1.33.52a1.33,1.33,0,0,1-.05,1,9.77,9.77,0,0,1-4.08,5.1c-1.54,1-3.56,1.7-4,3.49.21.61,1.29.56,1.38,1.2s-.58.77-.81,1.22c-.33.66.44,1.46,1.18,1.43a3.28,3.28,0,0,0,1.89-1.09c1.61-1.53,3.31-3.17,3.89-5.34.25-.9.34-2,1.05-2.54a1.73,1.73,0,0,1,2.64.85c.7-.39,1.79-.69,2.15,0a3.44,3.44,0,0,1,.15.85c.24,1.16,1.79,1.68,1.95,2.85.19,1.35-1.51,2-2.83,2.25l-3.6.58a3.25,3.25,0,0,0-1.49.49,1.19,1.19,0,0,0-.44,1.42,3.45,3.45,0,0,0,.62.65,2,2,0,0,1-1.23,3.15c-.48,0-.95-.17-1.43-.19-1.42-.06-2.54,1.22-3.22,2.49s-1.18,2.73-2.31,3.6c-1.83,1.4-5,1.08-5.87,3.23a5.24,5.24,0,0,0,0,2.78,3.74,3.74,0,0,1-.33,2.72c-.52.76-1.89.92-2.28.07a2.12,2.12,0,0,1-.05-1.2c.21-1.34.42-2.68.62-4a4,4,0,0,0-.29-2.92c-.81-1.14-2.62-1-3.67-.12a6.73,6.73,0,0,0-1.77,3.71,16.26,16.26,0,0,1-1,3.6h0c-.18,1.12-.34,2.26-.45,3.41s-.2,2.34-.24,3.54a6,6,0,0,0,.45-.44c.56-.59,1.69-3.07,2.7-1.85a.93.93,0,0,1,0,1.13c-.31.41-.93.5-1.17.94s.11,1.18.59,1.52a5,5,0,0,1,1.4,1.07c.65.95,0,2.38.66,3.35s1.7.89,2.68,1l.34.05a4.52,4.52,0,0,1,3.85-4.22c3.68-.85,8.51,2.25,10.57,5.07,2.31,3.16,3.4,7.62,6.94,9.21,2.53,1.13,6.12.72,7.36,3.24,1.1,2.26-.82,4.81-1.11,7.31-.19,1.66.34,3.3.47,5s-.37,3.6-1.85,4.29c-.83.38-1.86.34-2.53,1-1.18,1.14-.21,3.49-1.39,4.63a6,6,0,0,1-1.5.8c-2.66,1.37-2.59,5.35-1.35,8.11,0,.1.09.19.13.29a55.23,55.23,0,0,0,55.09,1.42h0a57.35,57.35,0,0,0,5-3.05,56,56,0,0,0,11.23-10.17c.94-1.11,1.83-2.26,2.68-3.43.43-.61.86-1.21,1.26-1.84a56.12,56.12,0,0,0,7-14.62,57.43,57.43,0,0,0,2.14-9.69c.17-1.28.3-2.58.39-3.89a3.23,3.23,0,0,1-2.26,1A3.64,3.64,0,0,1,313.82,290.53Z" style="fill:#344C0E"></path><path d="M249.72,246c-1.12.68-1.71,2-2.56,2.94s-2.4,1.7-3.41.87a2.36,2.36,0,0,1-.76-1.68,4.37,4.37,0,0,1,.6-2.62c.48-.8,1.22-1.43,1.63-2.27a1.87,1.87,0,0,0-.51-2.48c-.45-.21-1-.13-1.43-.43-.72-.54-.2-1.83.64-2.15a6.32,6.32,0,0,1,2.67,0c3.25.21,5.64-2,8.08-3.76,1.9-1.4,6-3.06,8.15-1.63.88.57,1.22,2,.4,2.69-.37.29-.88.35-1.23.67s-.47,1-.71,1.53c-.61,1.34-2.39,1.83-3,3.19-.34.82-.19,1.84-.72,2.54a3.05,3.05,0,0,1-1.82.93l-4.24,1A6.37,6.37,0,0,0,249.72,246Z" style="fill:#263238"></path><path d="M287.62,316.33c-1.41,2.16-1.66,4.86-2.05,7.42s-1.06,5.28-3,7-5.48,1.59-6.55-.77c-.57-1.28-.28-2.78-.59-4.15-.41-1.79-1.81-3.16-2.47-4.87a14,14,0,0,1-.61-4.62c-.25-8.54-2.3-17.45-8-23.71a5.53,5.53,0,0,0-2.5-1.79,3.14,3.14,0,0,0-3.27,1.15,12.09,12.09,0,0,1-1.26,1.93c-1.22,1.13-3.34.32-4.16-1.14a8.69,8.69,0,0,1-.56-4.94q.24-3.12.5-6.24a5.36,5.36,0,0,1,.91-3.08c1-1.17,2.78-1.22,4-2.15,1.6-1.22,1.81-3.55,2.82-5.31s4.16-2.5,4.63-.52c3.34-7.27,10.71,3.53,15.09,2.72,1.27-.23,2.52-.86,3.8-.67,2.26.32,3.43,2.86,4.2,5.05l3.84,10.92c.48,1.38,1.11,2.92,2.46,3.45,1,.41,2.23.1,3.27.49,2.75,1,1.86,5.43-.36,7.38s-5.32,3.18-6.37,6c-.79,2.1-.16,4.56-1,6.63C289.78,313.92,288.49,315,287.62,316.33Z" style="fill:#263238"></path><path d="M298.06,318.7c-.9.13-2-.32-2.66.29a3,3,0,0,0-.64,1.46,3.09,3.09,0,0,1-1.29,1.78,1.89,1.89,0,0,1-2.09,0,1.47,1.47,0,0,1-.28-2,10,10,0,0,1,.78-.65c1.2-1.15.38-3.3,1.29-4.67.54-.81,1.38-1.63,2-2.45.46-.63.63-1.13,1.46-1.3C300.26,310.4,301.91,318.16,298.06,318.7Z" style="fill:#263238"></path><path d="M214.35,303.2c-.18-1.64.35-3.28.38-4.93,0-1.14-.06-2.35-.08-3.49a16,16,0,0,1-2.85-.41.88.88,0,0,1-.52-.27,1.05,1.05,0,0,1-.12-.61c-.07-1.28-1.28-2.13-2.38-2.77a9,9,0,0,0-1.73-.87c0,.13,0,.26,0,.4a58,58,0,0,0,3.57,18.13,55.07,55.07,0,0,0,3.43,7.49c.55,1,1.15,2.06,1.78,3.06.78,1.24,1.6,2.45,2.48,3.62s1.68,2.21,2.6,3.26a53.76,53.76,0,0,0,4,4.16c1.23,1.18,2.52,2.29,3.86,3.35-3.06-8.37-5.95-16.92-11.19-24.05C216.19,307.41,214.61,305.51,214.35,303.2Z" style="fill:#344C0E"></path><path d="M207,287.14c0,.35,0,.69,0,1s0,.56,0,.84c0-.28,0-.56,0-.84S207,287.49,207,287.14Z" style="fill:#263238"></path><g style="opacity:0.6000000000000001"><path d="M231.89,335.64c.47.32,1,.64,1.43.94l1,.64-1-.64C232.84,336.28,232.36,336,231.89,335.64Z" style="fill:#263238"></path></g><path d="M297.77,299.85c2.22-2,3.11-6.36.36-7.38-1-.39-2.24-.08-3.27-.49-1.35-.53-2-2.07-2.46-3.45l-3.84-10.92c-.77-2.19-1.94-4.73-4.2-5.05-1.28-.19-2.53.44-3.8.67-4.38.81-11.75-10-15.09-2.72-.47-2-3.62-1.23-4.63.52s-1.22,4.09-2.82,5.31c-1.22.93-3,1-4,2.15a5.36,5.36,0,0,0-.91,3.08q-.26,3.12-.5,6.24a8.69,8.69,0,0,0,.56,4.94c.82,1.46,2.94,2.27,4.16,1.14a12.09,12.09,0,0,0,1.26-1.93,3.14,3.14,0,0,1,3.27-1.15,5.53,5.53,0,0,1,2.5,1.79c5.7,6.26,7.75,15.17,8,23.71a14,14,0,0,0,.61,4.62c.66,1.71,2.06,3.08,2.47,4.87.31,1.37,0,2.87.59,4.15,1.07,2.36,4.61,2.46,6.55.77s2.6-4.41,3-7,.64-5.26,2.05-7.42c.87-1.34,2.16-2.41,2.77-3.89.85-2.07.22-4.53,1-6.63C292.45,303,295.56,301.8,297.77,299.85Z" style="fill:#344C0E"></path><g style="opacity:0.6000000000000001"><path d="M207.08,285.8h0a3,3,0,0,0,0,.31c0,.34,0,.69,0,1,0-.34,0-.69,0-1A3,3,0,0,1,207.08,285.8Z" style="fill:#263238"></path></g><g style="opacity:0.6000000000000001"><path d="M207,289c0,.28,0,.56,0,.84h0C207,289.57,207,289.29,207,289Z" style="fill:#263238"></path></g><path d="M214.75,292.56l-.34-.05c-1-.11-2.14-.17-2.68-1s0-2.4-.66-3.35a5,5,0,0,0-1.4-1.07c-.48-.34-.89-1-.59-1.52s.86-.53,1.17-.94a.93.93,0,0,0,0-1.13c-1-1.22-2.14,1.26-2.7,1.85a6,6,0,0,1-.45.44h0a3,3,0,0,0,0,.31c0,.34,0,.69,0,1s0,.69,0,1,0,.56,0,.84,0,.56,0,.84a9,9,0,0,1,1.73.87c1.1.64,2.31,1.49,2.38,2.77a1.05,1.05,0,0,0,.12.61.88.88,0,0,0,.52.27,16,16,0,0,0,2.85.41" style="fill:#344C0E"></path><path d="M214.65,294.78c0,1.14.1,2.35.08,3.49,0,1.65-.56,3.29-.38,4.93.26,2.31,1.84,4.21,3.21,6.07,5.24,7.13,8.13,15.68,11.19,24.05h0c.56.46,1.14.89,1.73,1.32s.93.67,1.4,1,1,.64,1.43.94l1,.64c0-.1-.09-.19-.13-.29-1.24-2.76-1.31-6.74,1.35-8.11a6,6,0,0,0,1.5-.8c1.18-1.14.21-3.49,1.39-4.63.67-.63,1.7-.59,2.53-1,1.48-.69,2-2.63,1.85-4.29s-.66-3.3-.47-5c.29-2.5,2.21-5.05,1.11-7.31-1.24-2.52-4.83-2.11-7.36-3.24-3.54-1.59-4.63-6.05-6.94-9.21-2.06-2.82-6.89-5.92-10.57-5.07a4.52,4.52,0,0,0-3.85,4.22" style="fill:#344C0E"></path><path d="M210.55,271.53c1-.91,2.86-1,3.67.12a4,4,0,0,1,.29,2.92c-.2,1.34-.41,2.68-.62,4a2.12,2.12,0,0,0,.05,1.2c.39.85,1.76.69,2.28-.07a3.74,3.74,0,0,0,.33-2.72,5.24,5.24,0,0,1,0-2.78c.89-2.15,4-1.83,5.87-3.23,1.13-.87,1.64-2.32,2.31-3.6s1.8-2.55,3.22-2.49c.48,0,1,.2,1.43.19a2,2,0,0,0,1.23-3.15,3.45,3.45,0,0,1-.62-.65,1.19,1.19,0,0,1,.44-1.42,3.25,3.25,0,0,1,1.49-.49l3.6-.58c1.32-.21,3-.9,2.83-2.25-.16-1.17-1.71-1.69-1.95-2.85a3.44,3.44,0,0,0-.15-.85c-.36-.74-1.45-.44-2.15,0a1.73,1.73,0,0,0-2.64-.85c-.71.59-.8,1.64-1.05,2.54-.58,2.17-2.28,3.81-3.89,5.34a3.28,3.28,0,0,1-1.89,1.09c-.74,0-1.51-.77-1.18-1.43.23-.45.87-.72.81-1.22s-1.17-.59-1.38-1.2c.42-1.79,2.44-2.53,4-3.49a9.77,9.77,0,0,0,4.08-5.1,1.33,1.33,0,0,0,.05-1c-.23-.45-.83-.52-1.33-.52-1.19,0-2.67.14-3.11,1.27a13.72,13.72,0,0,0-.2,1.93c-.42,1.88-2.95,2.09-4.49,3.21a15,15,0,0,1-1.74,1.37,6.28,6.28,0,0,1-2.37.39l-.42,0c-.49.69-1,1.4-1.41,2.11s-.89,1.45-1.32,2.18a57.63,57.63,0,0,0-4.86,11.06c-.44,1.35-.82,2.72-1.15,4.12s-.62,2.81-.85,4.24a16.26,16.26,0,0,0,1-3.6A6.73,6.73,0,0,1,210.55,271.53Z" style="fill:#344C0E"></path><path d="M257.6,243.39c.53-.7.38-1.72.72-2.54.57-1.36,2.35-1.85,3-3.19.24-.52.3-1.15.71-1.53s.86-.38,1.23-.67c.82-.65.48-2.12-.4-2.69-2.2-1.43-6.25.23-8.15,1.63-2.44,1.8-4.83,4-8.08,3.76a6.32,6.32,0,0,0-2.67,0c-.84.32-1.36,1.61-.64,2.15.4.3,1,.22,1.43.43a1.87,1.87,0,0,1,.51,2.48c-.41.84-1.15,1.47-1.63,2.27a4.37,4.37,0,0,0-.6,2.62,2.36,2.36,0,0,0,.76,1.68c1,.83,2.55.12,3.41-.87s1.44-2.26,2.56-2.94a6.37,6.37,0,0,1,1.82-.65l4.24-1A3.05,3.05,0,0,0,257.6,243.39Z" style="fill:#344C0E"></path><g style="opacity:0.6000000000000001"><path d="M319.17,287.39c0-.83,0-1.64-.07-2.45,0,.81.07,1.62.07,2.45,0,.26,0,.52,0,.78,0,1.27,0,2.52-.11,3.77.07-1.25.11-2.5.11-3.77C319.19,287.91,319.19,287.65,319.17,287.39Z" style="fill:#263238"></path></g><g style="opacity:0.6000000000000001"><path d="M315.67,268.21c.26.73.52,1.46.75,2.19-.23-.73-.49-1.46-.75-2.19Z" style="fill:#263238"></path></g><path d="M319.17,287.39c0-.83,0-1.64-.07-2.45s-.1-1.62-.18-2.43c-.06-.65-.14-1.29-.22-1.93s-.19-1.36-.3-2a55.88,55.88,0,0,0-1.31-5.93c-.21-.75-.43-1.49-.67-2.22s-.49-1.46-.75-2.19h0c-.29-.55-.59-1.08-.92-1.61-3.11-5-7.64-9-11.07-13.78-1.11-1.56-2-2.86-4-3.16-2.93-.46-4.41,1.24-6.49-1.59-.56-.76-1.54-1.47-2.36-1,.21.61.43,1.21.64,1.83a.92.92,0,0,1,.08.4c0,.42-.67.54-1,.31a3.67,3.67,0,0,1-.79-1,2.83,2.83,0,0,0-4.21-.35,1.67,1.67,0,0,0-.93-1.34,1.93,1.93,0,0,1-2.42,1.58c-.17-.55.8-.65,1.14-1.12s-.07-1.05-.46-1.43a6.07,6.07,0,0,0-3.87-1.52,5.21,5.21,0,0,1-2.64-.32c-.45-.27-.77-.72-1.23-1-1-.57-2.22,0-3.22.52a6.34,6.34,0,0,0-3.24,3.25c-.49,1.5.59,3.53,2.13,3.34a3,3,0,0,1,1.18-.13c.55.15.8.8.85,1.38a4.16,4.16,0,0,0,.25,1.69c.27.51,1.08.76,1.39.28.73-.7.64-1.89.45-2.89a3.9,3.9,0,0,1,.21-3c.59-.82,2.28-.56,2.16.45-.07.6-.74,1-.71,1.64s.76.94,1.37.91a6.43,6.43,0,0,1,1.8-.09c.59.15,1.07.93.64,1.38-.74.85-2.66-.61-3,.45a3.15,3.15,0,0,0,0,.87c-.07.88-1.17,1.21-2,1.32a4.69,4.69,0,0,1-2.58-.19,1.69,1.69,0,0,1-.88-2.2,1,1,0,0,0-1.36.51,2.93,2.93,0,0,0-.09,1.64c-.93-.21-1.75.59-2.28,1.38s-1,1.72-1.93,2-2.15-.1-2.62.73c-.61,1.08,1.16,2.46.54,3.53-.35.61-1.21.59-1.88.78-1.78.52-2.41,3.18-1.19,4.6a3.46,3.46,0,0,0,4.94,0,15.85,15.85,0,0,0,1.9-3.37c.65-1.11,1.88-2.12,3.1-1.76a3.87,3.87,0,0,1,1.27.81l1.79,1.53a1.69,1.69,0,0,1,.76,1.24c0,.41-.35.73-.48,1.1-.37,1.1,1.18,2.14,2.16,1.54a2.2,2.2,0,0,0,.41-3.06c-.92-1.31-3-2-2.95-3.57,1.06-.88,2.74.05,3.36,1.31s.64,2.73,1.16,4,2,2.45,3.22,1.82c-.32-1.12-.63-2.24-.95-3.35.78-.6,1.68,1.14,2.61.85.57-.18.64-1,.39-1.57a8,8,0,0,1-.79-1.64,1.84,1.84,0,0,1,2.12-1.91,2.83,2.83,0,0,1,2.08,2.34,5.6,5.6,0,0,0,.28,1.29c.41.87,1.47,1.13,2.34,1.49s1.78,1.26,1.42,2.15c-.17.38-.57.75-.43,1.15s.65.51.65.89-.27.42-.5.52c-.58.25-1.22.33-1.79.61a1.65,1.65,0,0,0-1,1.46c.07.91,1.13,1.34,1.62,2.09a11.25,11.25,0,0,1,.71,2.48,9.08,9.08,0,0,0,1.34,2c1.48,2.05,1.82,4.68,2.54,7.1.32,1.1.91,2.32,2,2.52a3.24,3.24,0,0,0,1.77-.35,10.66,10.66,0,0,0,4.35-2.64c1.12-1.32,1.5-3.46.35-4.76a.92.92,0,0,0-.54-.35,1.68,1.68,0,0,0-.84.3,2.35,2.35,0,0,1-2.47-.54,7.15,7.15,0,0,1-1.48-2.25c-.43-.9-.87-1.8-1.31-2.71a1.54,1.54,0,0,1,1.9.18,11.48,11.48,0,0,1,1.3,1.63,8.22,8.22,0,0,0,5.6,2.68,5.37,5.37,0,0,1,1.58.33c1.57.73,2,3.09,3.68,3.6a10.72,10.72,0,0,1,1.41.33,2.59,2.59,0,0,1,1.18,1.79,29.58,29.58,0,0,0,1,4,3.64,3.64,0,0,0,3,2.44,3.23,3.23,0,0,0,2.26-1h0c.07-1.25.11-2.5.11-3.77C319.19,287.91,319.19,287.65,319.17,287.39Z" style="fill:#344C0E"></path><path d="M296.6,311.13c-.83.17-1,.67-1.46,1.3-.59.82-1.43,1.64-2,2.45-.91,1.37-.09,3.52-1.29,4.67a10,10,0,0,0-.78.65,1.47,1.47,0,0,0,.28,2,1.89,1.89,0,0,0,2.09,0,3.09,3.09,0,0,0,1.29-1.78,3,3,0,0,1,.64-1.46c.69-.61,1.76-.16,2.66-.29C301.91,318.16,300.26,310.4,296.6,311.13Z" style="fill:#344C0E"></path><g style="opacity:0.2"><path d="M297.77,299.85c2.22-2,3.11-6.36.36-7.38-1-.39-2.24-.08-3.27-.49-1.35-.53-2-2.07-2.46-3.45l-3.84-10.92c-.77-2.19-1.94-4.73-4.2-5.05-1.28-.19-2.53.44-3.8.67-4.38.81-11.75-10-15.09-2.72-.47-2-3.62-1.23-4.63.52s-1.22,4.09-2.82,5.31c-1.22.93-3,1-4,2.15a5.36,5.36,0,0,0-.91,3.08q-.26,3.12-.5,6.24a8.69,8.69,0,0,0,.56,4.94c.82,1.46,2.94,2.27,4.16,1.14a12.09,12.09,0,0,0,1.26-1.93,3.14,3.14,0,0,1,3.27-1.15,5.53,5.53,0,0,1,2.5,1.79c5.7,6.26,7.75,15.17,8,23.71a14,14,0,0,0,.61,4.62c.66,1.71,2.06,3.08,2.47,4.87.31,1.37,0,2.87.59,4.15,1.07,2.36,4.61,2.46,6.55.77s2.6-4.41,3-7,.64-5.26,2.05-7.42c.87-1.34,2.16-2.41,2.77-3.89.85-2.07.22-4.53,1-6.63C292.45,303,295.56,301.8,297.77,299.85Z"></path></g><g style="opacity:0.2"><path d="M228.75,333.32h0c.56.46,1.14.89,1.73,1.32s.93.67,1.4,1,1,.64,1.43.94l1,.64c0-.1-.09-.19-.13-.29-1.24-2.76-1.31-6.74,1.35-8.11a6,6,0,0,0,1.5-.8c1.18-1.14.21-3.49,1.39-4.63.67-.63,1.7-.59,2.53-1,1.48-.69,2-2.63,1.85-4.29s-.66-3.3-.47-5c.29-2.5,2.21-5.05,1.11-7.31-1.24-2.52-4.83-2.11-7.36-3.24-3.54-1.59-4.63-6.05-6.94-9.21-2.06-2.82-6.89-5.92-10.57-5.07a4.52,4.52,0,0,0-3.85,4.22l-.34-.05c-1-.11-2.14-.17-2.68-1s0-2.4-.66-3.35a5,5,0,0,0-1.4-1.07c-.48-.34-.89-1-.59-1.52s.86-.53,1.17-.94a.93.93,0,0,0,0-1.13c-1-1.22-2.14,1.26-2.7,1.85a6,6,0,0,1-.45.44h0a3,3,0,0,0,0,.31c0,.34,0,.69,0,1s0,.69,0,1,0,.56,0,.84,0,.56,0,.84c0,.13,0,.26,0,.4a58,58,0,0,0,3.57,18.13,55.07,55.07,0,0,0,3.43,7.49c.55,1,1.15,2.06,1.78,3.06.78,1.24,1.6,2.45,2.48,3.62s1.68,2.21,2.6,3.26a53.76,53.76,0,0,0,4,4.16c1.23,1.18,2.52,2.29,3.86,3.35"></path></g><g style="opacity:0.2"><path d="M210.55,271.53c1-.91,2.86-1,3.67.12a4,4,0,0,1,.29,2.92c-.2,1.34-.41,2.68-.62,4a2.12,2.12,0,0,0,.05,1.2c.39.85,1.76.69,2.28-.07a3.74,3.74,0,0,0,.33-2.72,5.24,5.24,0,0,1,0-2.78c.89-2.15,4-1.83,5.87-3.23,1.13-.87,1.64-2.32,2.31-3.6s1.8-2.55,3.22-2.49c.48,0,1,.2,1.43.19a2,2,0,0,0,1.23-3.15,3.45,3.45,0,0,1-.62-.65,1.19,1.19,0,0,1,.44-1.42,3.25,3.25,0,0,1,1.49-.49l3.6-.58c1.32-.21,3-.9,2.83-2.25-.16-1.17-1.71-1.69-1.95-2.85a3.44,3.44,0,0,0-.15-.85c-.36-.74-1.45-.44-2.15,0a1.73,1.73,0,0,0-2.64-.85c-.71.59-.8,1.64-1.05,2.54-.58,2.17-2.28,3.81-3.89,5.34a3.28,3.28,0,0,1-1.89,1.09c-.74,0-1.51-.77-1.18-1.43.23-.45.87-.72.81-1.22s-1.17-.59-1.38-1.2c.42-1.79,2.44-2.53,4-3.49a9.77,9.77,0,0,0,4.08-5.1,1.33,1.33,0,0,0,.05-1c-.23-.45-.83-.52-1.33-.52-1.19,0-2.67.14-3.11,1.27a13.72,13.72,0,0,0-.2,1.93c-.42,1.88-2.95,2.09-4.49,3.21a15,15,0,0,1-1.74,1.37,6.28,6.28,0,0,1-2.37.39l-.42,0c-.49.69-1,1.4-1.41,2.11s-.89,1.45-1.32,2.18a57.63,57.63,0,0,0-4.86,11.06c-.44,1.35-.82,2.72-1.15,4.12s-.62,2.81-.85,4.24a16.26,16.26,0,0,0,1-3.6A6.73,6.73,0,0,1,210.55,271.53Z"></path></g><g style="opacity:0.2"><path d="M257.6,243.39c.53-.7.38-1.72.72-2.54.57-1.36,2.35-1.85,3-3.19.24-.52.3-1.15.71-1.53s.86-.38,1.23-.67c.82-.65.48-2.12-.4-2.69-2.2-1.43-6.25.23-8.15,1.63-2.44,1.8-4.83,4-8.08,3.76a6.32,6.32,0,0,0-2.67,0c-.84.32-1.36,1.61-.64,2.15.4.3,1,.22,1.43.43a1.87,1.87,0,0,1,.51,2.48c-.41.84-1.15,1.47-1.63,2.27a4.37,4.37,0,0,0-.6,2.62,2.36,2.36,0,0,0,.76,1.68c1,.83,2.55.12,3.41-.87s1.44-2.26,2.56-2.94a6.37,6.37,0,0,1,1.82-.65l4.24-1A3.05,3.05,0,0,0,257.6,243.39Z"></path></g><g style="opacity:0.2"><path d="M319.17,287.39c0-.83,0-1.64-.07-2.45s-.1-1.62-.18-2.43c-.06-.65-.14-1.29-.22-1.93s-.19-1.36-.3-2a55.88,55.88,0,0,0-1.31-5.93c-.21-.75-.43-1.49-.67-2.22s-.49-1.46-.75-2.19h0c-.29-.55-.59-1.08-.92-1.61-3.11-5-7.64-9-11.07-13.78-1.11-1.56-2-2.86-4-3.16-2.93-.46-4.41,1.24-6.49-1.59-.56-.76-1.54-1.47-2.36-1,.21.61.43,1.21.64,1.83a.92.92,0,0,1,.08.4c0,.42-.67.54-1,.31a3.67,3.67,0,0,1-.79-1,2.83,2.83,0,0,0-4.21-.35,1.67,1.67,0,0,0-.93-1.34,1.93,1.93,0,0,1-2.42,1.58c-.17-.55.8-.65,1.14-1.12s-.07-1.05-.46-1.43a6.07,6.07,0,0,0-3.87-1.52,5.21,5.21,0,0,1-2.64-.32c-.45-.27-.77-.72-1.23-1-1-.57-2.22,0-3.22.52a6.34,6.34,0,0,0-3.24,3.25c-.49,1.5.59,3.53,2.13,3.34a3,3,0,0,1,1.18-.13c.55.15.8.8.85,1.38a4.16,4.16,0,0,0,.25,1.69c.27.51,1.08.76,1.39.28.73-.7.64-1.89.45-2.89a3.9,3.9,0,0,1,.21-3c.59-.82,2.28-.56,2.16.45-.07.6-.74,1-.71,1.64s.76.94,1.37.91a6.43,6.43,0,0,1,1.8-.09c.59.15,1.07.93.64,1.38-.74.85-2.66-.61-3,.45a3.15,3.15,0,0,0,0,.87c-.07.88-1.17,1.21-2,1.32a4.69,4.69,0,0,1-2.58-.19,1.69,1.69,0,0,1-.88-2.2,1,1,0,0,0-1.36.51,2.93,2.93,0,0,0-.09,1.64c-.93-.21-1.75.59-2.28,1.38s-1,1.72-1.93,2-2.15-.1-2.62.73c-.61,1.08,1.16,2.46.54,3.53-.35.61-1.21.59-1.88.78-1.78.52-2.41,3.18-1.19,4.6a3.46,3.46,0,0,0,4.94,0,15.85,15.85,0,0,0,1.9-3.37c.65-1.11,1.88-2.12,3.1-1.76a3.87,3.87,0,0,1,1.27.81l1.79,1.53a1.69,1.69,0,0,1,.76,1.24c0,.41-.35.73-.48,1.1-.37,1.1,1.18,2.14,2.16,1.54a2.2,2.2,0,0,0,.41-3.06c-.92-1.31-3-2-2.95-3.57,1.06-.88,2.74.05,3.36,1.31s.64,2.73,1.16,4,2,2.45,3.22,1.82c-.32-1.12-.63-2.24-.95-3.35.78-.6,1.68,1.14,2.61.85.57-.18.64-1,.39-1.57a8,8,0,0,1-.79-1.64,1.84,1.84,0,0,1,2.12-1.91,2.83,2.83,0,0,1,2.08,2.34,5.6,5.6,0,0,0,.28,1.29c.41.87,1.47,1.13,2.34,1.49s1.78,1.26,1.42,2.15c-.17.38-.57.75-.43,1.15s.65.51.65.89-.27.42-.5.52c-.58.25-1.22.33-1.79.61a1.65,1.65,0,0,0-1,1.46c.07.91,1.13,1.34,1.62,2.09a11.25,11.25,0,0,1,.71,2.48,9.08,9.08,0,0,0,1.34,2c1.48,2.05,1.82,4.68,2.54,7.1.32,1.1.91,2.32,2,2.52a3.24,3.24,0,0,0,1.77-.35,10.66,10.66,0,0,0,4.35-2.64c1.12-1.32,1.5-3.46.35-4.76a.92.92,0,0,0-.54-.35,1.68,1.68,0,0,0-.84.3,2.35,2.35,0,0,1-2.47-.54,7.15,7.15,0,0,1-1.48-2.25c-.43-.9-.87-1.8-1.31-2.71a1.54,1.54,0,0,1,1.9.18,11.48,11.48,0,0,1,1.3,1.63,8.22,8.22,0,0,0,5.6,2.68,5.37,5.37,0,0,1,1.58.33c1.57.73,2,3.09,3.68,3.6a10.72,10.72,0,0,1,1.41.33,2.59,2.59,0,0,1,1.18,1.79,29.58,29.58,0,0,0,1,4,3.64,3.64,0,0,0,3,2.44,3.23,3.23,0,0,0,2.26-1h0c.07-1.25.11-2.5.11-3.77C319.19,287.91,319.19,287.65,319.17,287.39Z"></path></g><g style="opacity:0.2"><path d="M296.6,311.13c-.83.17-1,.67-1.46,1.3-.59.82-1.43,1.64-2,2.45-.91,1.37-.09,3.52-1.29,4.67a10,10,0,0,0-.78.65,1.47,1.47,0,0,0,.28,2,1.89,1.89,0,0,0,2.09,0,3.09,3.09,0,0,0,1.29-1.78,3,3,0,0,1,.64-1.46c.69-.61,1.76-.16,2.66-.29C301.91,318.16,300.26,310.4,296.6,311.13Z"></path></g><path d="M295.49,336.38l-.91-1.4c-.91-1.39-4.29-5.38-7-4.46a2.77,2.77,0,0,0-2.09,3.27c-.78-1.4-2.68-3.65-5.24-2.74s-2.14,4.08-2.14,4.08c-.89-1.13-3.28-1.31-3.28-1.31-3.77.61-3,4.7-3,4.7l-.08,0a2.8,2.8,0,0,0-3.46,3.05c.28,2.66.81,7.18,1.38,8.7.84,2.21,5,1.29,5,1.29s1.14,2.85,1.66,4.41c.75,2.3,3.07,3.08,5.3,2.94a10.37,10.37,0,0,0,4.34-1.53,7.54,7.54,0,0,0,6.61.83,6.56,6.56,0,0,0,4-4.68s5.34-2.29,7.63-4.64,3.29-7.55,3.29-7.55a6.86,6.86,0,0,0,4.17-3.59l-2.9-12.08a7.73,7.73,0,0,0-2.46-2.15s-7.32,10.85-10.83,12.88" style="fill:#a36957"></path><path d="M306.32,323.5a5.69,5.69,0,0,1,1,.67c.31.24.69.51,1.13.88s.56,1.07.88,1.71c.61,1.27,1.34,2.81,2.07,4.6a10.39,10.39,0,0,1,.51,1.43,10.79,10.79,0,0,1,.13,1.6c0,1.08,0,2.19-.11,3.35v.05l0,0a8.85,8.85,0,0,1-5,4.19,16.29,16.29,0,0,1-2.23.67,4.63,4.63,0,0,1-2.31.12,4.81,4.81,0,0,1-3.19-2.87,5.65,5.65,0,0,1,0-3.89,7.7,7.7,0,0,1,1.78-2.87,11.65,11.65,0,0,1,4.08-2.6c.53-.22.95-.36,1.23-.45a1.49,1.49,0,0,1,.45-.1s-.58.26-1.6.73a12.51,12.51,0,0,0-3.89,2.67,7.45,7.45,0,0,0-1.64,2.76,5.28,5.28,0,0,0,0,3.57,4.34,4.34,0,0,0,2.87,2.55,4.14,4.14,0,0,0,2.08-.12,15.21,15.21,0,0,0,2.15-.66,8.43,8.43,0,0,0,4.78-3.91l0,.09c.08-1.14.13-2.26.13-3.31a10.25,10.25,0,0,0-.1-1.51,13,13,0,0,0-.46-1.37c-.7-1.79-1.39-3.34-2-4.63-.29-.63-.55-1.24-.79-1.69s-.77-.65-1.06-.9A6.75,6.75,0,0,1,306.32,323.5Z" style="fill:#7c3b29"></path><path d="M285.52,333.79a28,28,0,0,1,1.22,3.13,66.5,66.5,0,0,0,3.27,7.35,39.53,39.53,0,0,0,4.37,6.73c1.31,1.59,2.27,2.44,2.21,2.51s-.28-.16-.73-.53q-.35-.28-.78-.72a14.07,14.07,0,0,1-1-1,33.34,33.34,0,0,1-4.56-6.72,51.31,51.31,0,0,1-3.16-7.48c-.32-1-.56-1.8-.7-2.36A3.35,3.35,0,0,1,285.52,333.79Z" style="fill:#7c3b29"></path><path d="M278.14,335.13a26.33,26.33,0,0,1,1,3.33c.55,2.07,1.32,4.93,2.32,8a66.7,66.7,0,0,0,3.05,7.76c.92,1.93,1.58,3.07,1.51,3.12a3.21,3.21,0,0,1-.56-.75c-.33-.5-.77-1.26-1.28-2.21a50.39,50.39,0,0,1-3.21-7.75c-1-3.12-1.72-6-2.19-8.1-.23-1.05-.41-1.9-.51-2.49A2.82,2.82,0,0,1,278.14,335.13Z" style="fill:#7c3b29"></path><path d="M271.85,338.52c.14,0,.59,3.14,1.53,7s1.88,6.87,1.73,6.92a7.78,7.78,0,0,1-.82-1.94,50,50,0,0,1-1.41-4.86,45.14,45.14,0,0,1-.93-5A7.36,7.36,0,0,1,271.85,338.52Z" style="fill:#7c3b29"></path><path d="M301,344.24c-.13.14-1.72-1.45-3.24-3.7s-2.51-4.25-2.36-4.32,1.24,1.8,2.79,4S301.06,344.16,301,344.24Z" style="fill:#7c3b29"></path><path d="M220.89,332.59a18.32,18.32,0,0,1,3.15-3.85,50.9,50.9,0,0,0,12.65,9.88h0c.7-1.51,3.06-4.94,5.85-4.45a2.75,2.75,0,0,1,2.54,2.92c.57-1.51,2.12-4,4.78-3.51s3.16,3.8,3.16,3.8a5.45,5.45,0,0,1,2.61-1.89c3.81,0,3.67,4.19,3.67,4.19l.07,0a2.78,2.78,0,0,1,3.87,2.48c.12,2.68.26,7.23-.09,8.82-.5,2.31-4.75,2-4.75,2s-1.14,5.16-1.43,6.78-2.16,1.34-4.38,1.54A10.11,10.11,0,0,1,247.7,360s-3.18,2.56-6.78,1.72a8.57,8.57,0,0,1-5.25-4.22,18.29,18.29,0,0,1-6.86-2.65c-2.62-2-4.36-7-4.36-7A6.79,6.79,0,0,1,219.8,345Z" style="fill:#a36957"></path><path d="M231.41,356.44a2.9,2.9,0,0,1-.77-.24,8.24,8.24,0,0,1-1.93-1.22,14.73,14.73,0,0,1-4.18-6.67l.24.18a4.88,4.88,0,0,1-3.06-.9,7.84,7.84,0,0,1-1.27-1.11,4.6,4.6,0,0,1-1-1.44,3.65,3.65,0,0,1-.23-1.87c.09-.58.19-1.14.28-1.7.19-1.11.37-2.18.54-3.2.35-2,.67-3.85.95-5.42a6.19,6.19,0,0,1,1.09-1.89c.38-.5.73-.91,1-1.24a5.87,5.87,0,0,1,1-1,8.9,8.9,0,0,1-.8,1.11c-.27.34-.59.77-.94,1.28a6.55,6.55,0,0,0-1,1.77c-.24,1.58-.52,3.42-.83,5.43-.17,1-.34,2.11-.52,3.22-.09.55-.18,1.12-.27,1.69a3,3,0,0,0,.2,1.6c1,1.84,3,3.3,4.83,3.16h.19l.06.19a15.29,15.29,0,0,0,3.92,6.58A12.14,12.14,0,0,0,231.41,356.44Z" style="fill:#7c3b29"></path><path d="M223.62,336.59a3.07,3.07,0,0,1,.95.1,14.56,14.56,0,0,1,2.51.65,9.76,9.76,0,0,1,3.33,2,6.94,6.94,0,0,1,2.24,4.19,5,5,0,0,1-1.74,4.39,3.92,3.92,0,0,1-1.95.88,4.48,4.48,0,0,1-1.83-.18,12.61,12.61,0,0,0-2.46-.64c-.59,0-.91.08-.92,0a1.49,1.49,0,0,1,.93-.23,10,10,0,0,1,2.54.48,4.08,4.08,0,0,0,1.68.11,3.37,3.37,0,0,0,1.7-.82,4.52,4.52,0,0,0,1.53-4,6.59,6.59,0,0,0-2-3.9,9.77,9.77,0,0,0-3.14-2C225,336.9,223.6,336.69,223.62,336.59Z" style="fill:#7c3b29"></path><path d="M232.43,336.44c.15.06-.14.91-.67,1.8s-1,1.61-1.09,1.55.12-.89.64-1.81S232.3,336.4,232.43,336.44Z" style="fill:#7c3b29"></path><path d="M245.08,337.09a2.82,2.82,0,0,1,0,.9,23.73,23.73,0,0,1-.42,2.4,40.35,40.35,0,0,1-6.68,14.54,22.23,22.23,0,0,1-1.53,1.89c-.39.43-.62.65-.65.63s.74-1,1.88-2.73a50.58,50.58,0,0,0,3.9-6.94,48.72,48.72,0,0,0,2.72-7.48C244.79,338.33,245,337.08,245.08,337.09Z" style="fill:#7c3b29"></path><path d="M253,337.38a3,3,0,0,1,0,.92c0,.6-.08,1.45-.18,2.5a65.54,65.54,0,0,1-1.34,8.16,59.76,59.76,0,0,1-2.41,7.92c-.38,1-.72,1.77-1,2.3a3.4,3.4,0,0,1-.44.82,27.54,27.54,0,0,1,1.07-3.25c.67-2,1.52-4.78,2.24-7.91s1.19-6,1.49-8.08A27.91,27.91,0,0,1,253,337.38Z" style="fill:#7c3b29"></path><path d="M259.3,339.68a7.12,7.12,0,0,1,.2,2.09,43.19,43.19,0,0,1-.18,5.06c-.17,2-.44,3.75-.68,5a8,8,0,0,1-.53,2c-.15,0,.35-3.19.69-7.1S259.15,339.68,259.3,339.68Z" style="fill:#7c3b29"></path><path d="M231,348.69a6.9,6.9,0,0,1,.8-1.5c.65-1.12,1.33-2.27,2.07-3.53s1.51-2.64,2-3.56a9.59,9.59,0,0,1,.83-1.48,3.86,3.86,0,0,1-.5,1.64,38.66,38.66,0,0,1-1.89,3.66C232.7,346.7,231.11,348.79,231,348.69Z" style="fill:#7c3b29"></path><path d="M299.8,331.79c.14,0,.2.51.37,1.07s.38,1,.27,1.1-.57-.28-.77-.95S299.66,331.77,299.8,331.79Z" style="fill:#7c3b29"></path><path d="M263.78,314.44c1-2.4,3-7.4,4-10.48,1.1-3.31,3.89-5.74,5.87-8.59a26.3,26.3,0,0,0,2.46-24.86c-7.41,2.33-12.77,9.42-14.55,17.11s-.54,19.44,2.23,26.82" style="fill:#455a64"></path><path d="M272.67,281.08a4.79,4.79,0,0,1-.29.62c-.19.4-.53,1-.89,1.72a59.79,59.79,0,0,0-2.83,6.53,79.72,79.72,0,0,0-4.45,22.95,174.46,174.46,0,0,0,.63,23.48c.25,2.95.46,5.37.6,7.11.07.79.12,1.44.15,1.93a3.19,3.19,0,0,1,0,.68,3.1,3.1,0,0,1-.12-.67c-.06-.49-.15-1.13-.25-1.92-.2-1.68-.47-4.1-.77-7.1a158.53,158.53,0,0,1-.78-23.54,76,76,0,0,1,4.63-23.05,52.25,52.25,0,0,1,3-6.49c.39-.75.76-1.3,1-1.68A2.9,2.9,0,0,1,272.67,281.08Z" style="fill:#263238"></path><path d="M279.93,305.94c-3.52.61-7.19,1.29-10,3.49a13.44,13.44,0,0,0-4.77,11.22c3.57-2.22,8.43-1.85,11.6-4.64C279.45,313.63,280.1,309.59,279.93,305.94Z" style="fill:#455a64"></path><path d="M276.94,309.84a15.59,15.59,0,0,1-2.18,1.77,64.61,64.61,0,0,0-5.21,4.3,25.69,25.69,0,0,0-4.42,5c-.89,1.47-1.23,2.5-1.32,2.46a2.06,2.06,0,0,1,.17-.74,12.36,12.36,0,0,1,.83-1.91,22.4,22.4,0,0,1,4.38-5.24,45.45,45.45,0,0,1,5.35-4.22A14.17,14.17,0,0,1,276.94,309.84Z" style="fill:#263238"></path><path d="M260.09,316.22a11.46,11.46,0,0,1-9.29-4.45,19.7,19.7,0,0,1-3.89-9.95,59.35,59.35,0,0,1,0-10.83A27.68,27.68,0,0,1,260,316.27" style="fill:#455a64"></path><path d="M263.87,324.42a29.61,29.61,0,0,1-1.73-3.21c-1-2-2.47-4.75-4.12-7.75s-3.22-5.68-4.37-7.62a30.14,30.14,0,0,1-1.79-3.17,3.75,3.75,0,0,1,.62.77c.37.51.88,1.27,1.49,2.21,1.22,1.89,2.84,4.55,4.5,7.56s3,5.8,4,7.84c.47,1,.84,1.86,1.08,2.44A3.45,3.45,0,0,1,263.87,324.42Z" style="fill:#263238"></path><path d="M237.5,287.6c.29-2.15-2.73-3.92-5-4.1a13,13,0,0,1-3.24-.28c-2.23-.77-3.12-3.65-5.29-4.57-1.62-.68-3.49-.07-5.07.72s-3.13,1.79-4.89,1.9c-1.53.1-3.19-.47-4.53.28-1,.56-1.52,1.71-2.44,2.39a5.86,5.86,0,0,1-3.19.86,8.88,8.88,0,0,0-3.29.54A2.6,2.6,0,0,0,198.9,288Z" style="fill:#ebebeb"></path><path d="M313.84,257.54c.31-2.2-2.8-4-5.13-4.19a13.16,13.16,0,0,1-3.33-.29c-2.28-.8-3.19-3.75-5.42-4.69-1.67-.7-3.58-.08-5.2.74s-3.21,1.83-5,1.95c-1.57.1-3.28-.48-4.65.28-1,.58-1.56,1.75-2.5,2.45a6.08,6.08,0,0,1-3.28.89,9.11,9.11,0,0,0-3.37.55,2.68,2.68,0,0,0-1.69,2.7Z" style="fill:#ebebeb"></path><path d="M314.38,298.19c.23-1.65-2.11-3-3.86-3.15a9.87,9.87,0,0,1-2.5-.22c-1.72-.6-2.41-2.82-4.09-3.53a4.76,4.76,0,0,0-3.91.56,10.1,10.1,0,0,1-3.77,1.46c-1.19.08-2.47-.36-3.5.22-.77.43-1.17,1.32-1.88,1.84a4.56,4.56,0,0,1-2.47.67,6.72,6.72,0,0,0-2.53.41,2,2,0,0,0-1.28,2Z" style="fill:#ebebeb"></path><path d="M229.41,237.38a10.68,10.68,0,0,1,2.1,6.42,1,1,0,0,1-.37.94c-.85.44-1.43-1.62-2.32-1.27,0,1.89-.08,3.77-.13,5.66a2,2,0,0,1-.38,1.36,1.32,1.32,0,0,1-1.77-.16,3.85,3.85,0,0,1-.84-1.76l-1.56,3.69c-.13.31-.31.67-.64.73s-.67-.23-.9-.51a13.6,13.6,0,0,1-1.17-14.94" style="fill:#263238"></path><path d="M226.36,230.65c2.44.25,4.66,3.09,4.19,5a6.52,6.52,0,0,1-3.86,4.2,7.09,7.09,0,0,1-6.71-.34,4.77,4.77,0,0,1-1.59-6.14,6.39,6.39,0,0,1,3.93-2.47,8.52,8.52,0,0,1,4-.25,4.59,4.59,0,0,1,3.21,2.3" style="fill:#344C0E"></path><path d="M223.82,115.5c-3.65,1.63-6,5.35-6.94,9.25s-.47,8,.25,11.9a20.69,20.69,0,0,0-6.2,23.16,18.1,18.1,0,0,0,1,20.91,16.16,16.16,0,0,0-3.44,11.44c.21,2.32,1.26,4.93,3.5,5.55-1.24,3-2.51,6-2.71,9.2s.87,6.68,3.49,8.54a4.87,4.87,0,0,1,1.78,1.61,3.62,3.62,0,0,1,.17,1.88,26.8,26.8,0,0,0,.8,10.56c1.11,3.38,3.56,6.48,6.95,7.58a5.26,5.26,0,0,0,4.88-.54,6.27,6.27,0,0,0,1.93-4.33,20.59,20.59,0,0,0-3.22-13.58,5.13,5.13,0,0,1-1-2c-.18-1.12.49-2.17,1-3.18a13.93,13.93,0,0,0-1.79-15,2.5,2.5,0,0,1-.84-1.6,2.54,2.54,0,0,1,.69-1.35,10.82,10.82,0,0,0-1.39-14.1c-.62-.55-1.35-1.12-1.41-1.94a3.08,3.08,0,0,1,.58-1.64c3.06-5.46,2.29-12.38-.21-18.12a4.32,4.32,0,0,1-.51-1.8,4.81,4.81,0,0,1,1.05-2.38,15.16,15.16,0,0,0,2.11-11c-.23-1.15,3.06-.9,3-2.07s-.78-4.1-.44-5.28c1.13-3.9-.16-7.53.07-11.58s-.8-8.37-3.7-11.19" style="fill:#263238"></path><path d="M231.82,146.3a3.45,3.45,0,0,0-3-3.37c-3.93-.43-10.32.32-10.25,9.72.11,13.38,13.52,10.51,13.54,10.13S231.9,151.54,231.82,146.3Z" style="fill:#a36957"></path><path d="M227.94,157.74c-.06,0-.23.17-.62.35a2.3,2.3,0,0,1-1.74,0c-1.42-.51-2.63-2.74-2.71-5.15a7.71,7.71,0,0,1,.62-3.35,2.69,2.69,0,0,1,1.74-1.8,1.17,1.17,0,0,1,1.38.63c.19.37.1.64.17.66s.29-.23.18-.78a1.49,1.49,0,0,0-.54-.83,1.73,1.73,0,0,0-1.29-.33,3.28,3.28,0,0,0-2.42,2.09,8.06,8.06,0,0,0-.78,3.74c.11,2.69,1.51,5.21,3.45,5.75a2.49,2.49,0,0,0,2.13-.37C227.92,158.07,228,157.77,227.94,157.74Z" style="fill:#7c3b29"></path><path d="M221.06,161.33s-.13.09-.33.3a6.23,6.23,0,0,0-.79,1.05,8.71,8.71,0,0,0-.53,7.89,7.86,7.86,0,0,0,2.37,3,8.94,8.94,0,0,0,8.42,1.46,9.06,9.06,0,0,0,5.55-6.51,8.31,8.31,0,0,0-.06-3.85,9.11,9.11,0,0,0-5.22-6,5.92,5.92,0,0,0-1.24-.39,1.3,1.3,0,0,0-.45-.06c0,.05.6.17,1.61.64a9.23,9.23,0,0,1,3.53,3,8.08,8.08,0,0,1,1.34,6.53,8.61,8.61,0,0,1-5.25,6.11,8.52,8.52,0,0,1-7.93-1.34,7.49,7.49,0,0,1-2.26-2.83,8.46,8.46,0,0,1-.73-3.1,8.77,8.77,0,0,1,1-4.51C220.66,161.81,221.11,161.36,221.06,161.33Z" style="fill:#344C0E"></path><path d="M210.5,172c.09,0,.28-1,.83-2.59A22,22,0,0,1,218.91,159c1.34-1,2.26-1.49,2.22-1.57a8.52,8.52,0,0,0-2.44,1.26A19.29,19.29,0,0,0,211,169.25,8.51,8.51,0,0,0,210.5,172Z" style="fill:#455a64"></path><path d="M210.53,155.91a8.11,8.11,0,0,0,5,5.57c.08-.14-1.42-1-2.8-2.53S210.68,155.85,210.53,155.91Z" style="fill:#455a64"></path><path d="M213.29,148c.09,0,.25-.77.78-1.91a10.44,10.44,0,0,1,3-3.77,10.13,10.13,0,0,1,4.45-1.88c1.25-.21,2-.15,2.05-.24a4.37,4.37,0,0,0-2.09-.14,9.34,9.34,0,0,0-4.74,1.83,9.55,9.55,0,0,0-3.06,4A4.54,4.54,0,0,0,213.29,148Z" style="fill:#455a64"></path><path d="M217.48,137.25c-.13.07.08.77.47,1.56s.83,1.39,1,1.33-.08-.77-.47-1.57S217.61,137.18,217.48,137.25Z" style="fill:#455a64"></path><path d="M213.86,193.47A27.48,27.48,0,0,1,216,186c1.9-3.91,4.77-6.14,4.64-6.27a6.69,6.69,0,0,0-1.83,1.45,17.28,17.28,0,0,0-4.93,10A6.66,6.66,0,0,0,213.86,193.47Z" style="fill:#455a64"></path><path d="M213.57,181.55a3.45,3.45,0,0,0,.26,2.79c.65,1.49,1.84,2.19,1.9,2.06s-.83-.93-1.41-2.28S213.73,181.56,213.57,181.55Z" style="fill:#455a64"></path><path d="M213.52,205.16a5.61,5.61,0,0,0,2-.63,15.14,15.14,0,0,0,7.07-6.86,5.29,5.29,0,0,0,.69-1.95,24.7,24.7,0,0,1-4,5.59A25.4,25.4,0,0,1,213.52,205.16Z" style="fill:#455a64"></path><path d="M216.53,203.36a6.29,6.29,0,0,0,3.77,5.53c.09-.14-1.2-1-2.24-2.53S216.69,203.33,216.53,203.36Z" style="fill:#455a64"></path><path d="M217.2,225a20.63,20.63,0,0,1,7.23-12.52,6,6,0,0,0-1.83,1.23,16.07,16.07,0,0,0-5.25,9.1A6.13,6.13,0,0,0,217.2,225Z" style="fill:#455a64"></path><path d="M219,219.55a15.71,15.71,0,0,1,2.24,1.33c1.1.91,1.51,2.06,1.66,2a3.84,3.84,0,0,0-3.9-3.34Z" style="fill:#455a64"></path><path d="M223,142.47c0,.05.62-.28,1.15-1.2a7.17,7.17,0,0,0,.77-3.92,9.35,9.35,0,0,0-1-3.85c-.48-.91-1-1.34-1-1.3a12.26,12.26,0,0,0,.67,1.47,11.38,11.38,0,0,1,.84,3.72,8,8,0,0,1-.57,3.71C223.36,142,222.88,142.4,223,142.47Z" style="fill:#455a64"></path><path d="M222.82,132.2a5.23,5.23,0,0,0,1.65-1.38,11.86,11.86,0,0,0,2.81-9.75,5.14,5.14,0,0,0-.66-2c-.09,0,.15.81.29,2.1a13.69,13.69,0,0,1-.46,5,13.28,13.28,0,0,1-2.28,4.47C223.38,131.6,222.76,132.13,222.82,132.2Z" style="fill:#455a64"></path></g><g id="freepik--speech-bubble--inject-387"><path d="M332.92,188.92l7.93-16.67A43,43,0,1,1,352,182.94l0,0Z" style="fill:#fafafa"></path><path d="M332.92,188.92,352,183.15l.29-.09-.21-.23v0l-.26.3a43,43,0,0,0,21.21,7.22,39.11,39.11,0,0,0,6.82-.14c1.17-.15,2.36-.26,3.55-.45l3.59-.8a43.52,43.52,0,0,0,25.61-19.15,43,43,0,0,0,6.07-17.12,43.94,43.94,0,0,0-1.88-19.08,42.53,42.53,0,0,0-10.48-17A43.18,43.18,0,0,0,388.92,106a43.9,43.9,0,0,0-19.47-1.57,42.49,42.49,0,0,0-17.3,6.5,43.67,43.67,0,0,0-18.56,26.56,46.2,46.2,0,0,0-.85,14.1,42.72,42.72,0,0,0,8,20.81l0-.19-7.76,16.75c.58-1.2,3-6.16,8.11-16.59l0-.1-.06-.09a42.7,42.7,0,0,1-7.73-20.65,46.24,46.24,0,0,1,.91-13.9,43.08,43.08,0,0,1,18.36-26.09,41.78,41.78,0,0,1,17-6.36,43.36,43.36,0,0,1,19.12,1.56,42.62,42.62,0,0,1,17.09,10.45,41.58,41.58,0,0,1,10.29,16.69,43.12,43.12,0,0,1,1.87,18.74A42.21,42.21,0,0,1,412,169.41a42.88,42.88,0,0,1-25.15,18.92l-3.54.81c-1.17.19-2.35.31-3.49.46a38.25,38.25,0,0,1-6.74.17,42.8,42.8,0,0,1-21-7l-1.28-.85,1,1.14,0,0,.09-.32Z" style="fill:#263238"></path><path d="M356.68,144.74a12.2,12.2,0,0,1,3.06-6.69,11.82,11.82,0,0,1,6.08-3.84,9.6,9.6,0,0,1,7.43,1.37,9.49,9.49,0,0,1,3.07,3.38,9.48,9.48,0,0,1,10.19-4.63,11.75,11.75,0,0,1,6.17,3.7,12.17,12.17,0,0,1,3.22,6.6,14.91,14.91,0,0,1-1.74,9.18A21.05,21.05,0,0,1,387,160.7c-4.7,2.91-10.9,6.56-10.9,6.56s-5.33-3.88-10.1-6.68a21,21,0,0,1-7.34-6.71A14.83,14.83,0,0,1,356.68,144.74Z" style="fill:#344C0E"></path></g></svg>